<?xml version="1.0" encoding="utf-8"?>
<!-- Generator: Adobe Illustrator 23.0.1, SVG Export Plug-In . SVG Version: 6.00 Build 0)  -->
<svg version="1.1" xmlns="http://www.w3.org/2000/svg" xmlns:xlink="http://www.w3.org/1999/xlink" x="0px" y="0px"
	 viewBox="0 0 446 455" style="enable-background:new 0 0 446 455;" xml:space="preserve">
<style type="text/css">
	.st0{fill:#F5F5F5;}
	.st1{fill:#E0E0E0;}
	.st2{fill:#27DEBF;}
	.st3{opacity:0.15;}
	.st4{fill:#FFFFFF;}
	.st5{fill:#37474F;}
	.st6{opacity:0.5;}
	.st7{fill:#455A64;}
	.st8{fill:#263238;}
	.st9{opacity:0.1;}
	.st10{fill:#FAFAFA;}
	.st11{fill:#F0F0F0;}
	.st12{clip-path:url(#XMLID_4_);}
	.st13{fill:#FFA8A7;}
	.st14{opacity:0.2;}
	.st15{fill:#B17A7B;}
	.st16{fill:#9A585A;}
	.st17{clip-path:url(#XMLID_5_);}
	.st18{fill:#B16668;}
	.st19{fill:#9A4A4D;}
	.st20{clip-path:url(#XMLID_6_);}
	.st21{opacity:0.4;}
	.st22{opacity:0.3;}
	.st23{fill:#F28F8F;}
	.st24{clip-path:url(#XMLID_7_);}
	.st25{opacity:0.25;}
	.st26{fill:#FFBDA7;}
	.st27{fill:#F29077;}
	.st28{clip-path:url(#XMLID_8_);}
	.st29{opacity:0.6;fill:#FFFFFF;}
	.st30{clip-path:url(#XMLID_9_);}
	.st31{fill:#995153;}
	.st32{fill:#733B3C;}
	.st33{fill:#E6E6E6;}
</style>
<g id="Floor">
	<ellipse id="Floor_11_" class="st0" cx="221.05" cy="338.55" rx="221.3" ry="114.92"/>
</g>
<g id="Shadow">
	<ellipse id="Shadow_2_" class="st1" cx="375.41" cy="365.32" rx="49.59" ry="30.13"/>
</g>
<g id="Plants">
	<g id="Plants_1_">
		<g id="XMLID_2_">
			<g id="XMLID_1786_">
				<path id="XMLID_1788_" class="st2" d="M59.32,339.06c0,0-0.45-8.25-4-17c-3.55-8.76-10.37-17.58-18.23-19.25
					c-7.86-1.66-11.19,3.62-9.53,8.81c1.43,4.47,7.27,8.19,11.7,12.09c4.43,3.9,12.71,13.34,15.02,22.45l4.43,0.48L59.32,339.06z"/>
			</g>
			<g id="XMLID_1783_" class="st3">
				<path id="XMLID_1785_" d="M59.32,339.06c0,0-0.45-8.25-4-17c-3.55-8.76-10.37-17.58-18.23-19.25
					c-7.86-1.66-11.19,3.62-9.53,8.81c1.43,4.47,7.27,8.19,11.7,12.09c4.43,3.9,12.71,13.34,15.02,22.45l4.43,0.48L59.32,339.06z"/>
			</g>
			<g id="XMLID_1779_">
				<path id="XMLID_1781_" class="st4" d="M56.3,343.17c-0.26,0-0.48-0.21-0.49-0.48c-0.83-22.91-23.24-35.72-23.46-35.85
					c-0.24-0.13-0.32-0.43-0.19-0.67c0.13-0.24,0.43-0.32,0.67-0.19c0.23,0.13,23.12,13.22,23.97,36.68c0.01,0.27-0.2,0.5-0.48,0.51
					C56.31,343.17,56.3,343.17,56.3,343.17z"/>
			</g>
		</g>
		<g>
			<g id="XMLID_1775_">
				<path id="XMLID_1777_" class="st2" d="M56.55,374.49c0,0-4.58,2.9-11.74,1.66c-2.28-0.39-4.53-1.27-6.16-2.96
					c-1.85-1.91-2.14-3.82-2.66-6.38c-0.22-1.05-0.45-2.14-1.08-3.01c-1.53-2.11-4.59-2.07-7.14-2.62c-3.62-0.78-6.95-3.38-8-6.93
					c-1.05-3.55,0.65-7.88,4.08-9.27c-1.4-0.9-2.81-1.8-4.21-2.7c-1.28-0.82-2.57-1.65-3.6-2.75c-1.04-1.11-1.81-2.54-1.82-4.05
					c-0.02-2.24,1.66-4.23,3.7-5.15c2.04-0.92,4.37-0.93,6.59-0.67c2.24,0.26,4.45,0.78,6.58,1.55c0.6,0.22,1.21,0.45,1.84,0.41
					c0.83-0.05,1.55-0.57,2.25-1.03c4.82-3.18,12.66-2.94,15.24,3.06c0.38,0.88,0.61,1.83,1.01,2.7c1.5,3.23,5.71,2.26,8.43,3.77
					c1.77,0.98,2.83,2.94,3.17,4.93c0.54,3.19-0.35,6.83-0.94,9.99c-0.57,3.06-1.34,6.09-2.19,9.08c-0.7,2.47-1.47,4.92-2.29,7.34
					C57.43,371.99,57.05,374.17,56.55,374.49z"/>
			</g>
			<path id="XMLID_1773_" class="st4" d="M59.43,367.1c-2.46-7.02-6.7-12.74-11.5-17.32c-0.05-0.11-0.14-0.2-0.26-0.25
				c-1.52-1.43-3.08-2.74-4.67-3.95c-1.11-6.65,1.57-12.49,1.59-12.55c0.12-0.25,0.01-0.54-0.24-0.66
				c-0.25-0.12-0.54-0.01-0.66,0.24c-0.11,0.24-2.58,5.61-1.81,12.13c-10.58-7.72-21.49-10.81-21.67-10.86
				c-0.26-0.07-0.53,0.08-0.61,0.35c-0.07,0.26,0.08,0.53,0.35,0.61c0.21,0.06,14.19,4.02,25.72,14.19
				c-7.07-1.24-15.52,2.18-15.91,2.34c-0.25,0.1-0.37,0.39-0.27,0.64c0.08,0.19,0.26,0.31,0.46,0.31c0.06,0,0.13-0.01,0.19-0.04
				c0.1-0.04,10.02-4.05,17.03-1.88c4.74,4.5,8.92,10.12,11.34,17.02c0.07,0.2,0.26,0.33,0.47,0.33c0.05,0,0.11-0.01,0.16-0.03
				C59.39,367.64,59.52,367.36,59.43,367.1z"/>
		</g>
	</g>
</g>
<g id="Board">
	<g id="XMLID_431_">
		<g id="XMLID_450_">
			<polygon id="XMLID_451_" class="st2" points="70.49,363.04 279.54,242.34 279.54,21.05 70.49,141.75 			"/>
		</g>
		<g id="XMLID_448_">
			<polygon id="XMLID_449_" class="st5" points="60.84,136.18 70.49,141.75 279.54,21.05 289.18,4.34 			"/>
		</g>
		<g id="XMLID_446_">
			<polygon id="XMLID_447_" class="st5" points="289.18,247.92 289.18,4.34 279.54,21.05 279.54,242.34 			"/>
		</g>
		<g id="XMLID_444_">
			<polygon id="XMLID_445_" class="st5" points="60.84,136.18 70.49,141.75 70.49,363.04 60.84,379.75 			"/>
		</g>
		<g id="XMLID_442_">
			<polygon id="XMLID_443_" class="st5" points="70.49,363.04 279.54,242.34 289.18,247.92 60.84,379.75 			"/>
		</g>
		<g id="XMLID_440_" class="st6">
			<polygon id="XMLID_441_" class="st7" points="60.84,136.18 70.49,141.75 279.54,21.05 289.18,4.34 			"/>
		</g>
		<g id="XMLID_438_" class="st6">
			<polygon id="XMLID_439_" class="st7" points="70.49,363.04 279.54,242.34 289.18,247.92 60.84,379.75 			"/>
		</g>
		<g id="XMLID_436_">
			<polygon id="XMLID_437_" class="st7" points="289.18,4.34 282.75,0.63 54.41,132.46 60.84,136.18 			"/>
		</g>
		<g id="XMLID_434_">
			<polygon id="XMLID_435_" class="st8" points="54.41,132.46 60.84,136.18 60.84,379.75 54.41,376.04 			"/>
		</g>
		<g id="XMLID_432_" class="st9">
			<polygon id="XMLID_433_" points="279.54,21.05 276.32,22.91 276.32,240.49 70.49,359.32 70.49,363.04 279.54,242.34 			"/>
		</g>
	</g>
</g>
<g id="Characters_boxes">
	<g id="XMLID_967_">
		<g id="XMLID_1878_">
			<g id="XMLID_1994_">
				<path id="XMLID_1997_" class="st1" d="M268.3,148.96l-0.06-2.92l-3.48-1.98l0,0l0,0v0c-0.28-0.16-0.68-0.14-1.11,0.11
					l-48.48,27.99c-0.87,0.5-1.57,1.72-1.57,2.72l0,61.66c0,0.49,0.17,0.84,0.44,1.01v0l0.01,0.01c0,0,0,0,0,0l3.48,1.99l0.01-3.47
					l46.1-26.57c0.87-0.5,1.57-1.72,1.57-2.72v-57.82H268.3z"/>
				<path id="XMLID_1996_" class="st10" d="M268.24,146.03l-3.48-1.98l0,0l0,0v0c-0.28-0.16-0.68-0.14-1.11,0.11l-48.48,27.99
					c-0.38,0.22-0.72,0.58-0.99,0.99l4.93,2.85l46.12-26.05L268.24,146.03z"/>
				<path id="XMLID_1995_" class="st11" d="M218.64,174.13l48.48-27.99c0.87-0.5,1.57-0.1,1.57,0.91v61.71c0,1-0.7,2.22-1.57,2.72
					l-48.48,27.94c-0.87,0.5-1.57,0.09-1.57-0.91l0-61.66C217.07,175.85,217.77,174.63,218.64,174.13z"/>
			</g>
			<g id="XMLID_1892_">
				<defs>
					<path id="XMLID_1893_" d="M218.64,174.13l48.48-27.99c0.87-0.5,1.57-0.09,1.57,0.91v61.71c0,1-0.7,2.22-1.57,2.72l-48.48,27.94
						c-0.87,0.5-1.57,0.09-1.57-0.91l0-61.66C217.07,175.85,217.77,174.63,218.64,174.13z"/>
				</defs>
				<clipPath id="XMLID_4_">
					<use xlink:href="#XMLID_1893_"  style="overflow:visible;"/>
				</clipPath>
				<g id="XMLID_1896_" class="st12">
					<g id="XMLID_1966_">
						<g id="Character_boy_3_">
							<path id="XMLID_1993_" class="st13" d="M252.52,200.21c0,0,3.81-1.18,6.98,3.83c2.16,3.4,9.7,16.33,9.7,16.33
								s14.67-7.78,15.49-8.79c0.83-1.02,0.78-3.08,0.9-4.19c0.2-1.86-0.47-3.45-0.57-4.12c-0.17-1.17,1.51-1.23,2.34,0.39
								c0.61,1.18,0.65,2.53,1.18,2.55c0.18,0.01,1.82-1.49,2.06-1.76c0.91-0.99,2.55-2.66,3.8-2.43c0.41,0.08,0.73,0.42,0.83,0.89
								c0.15,0.74,0.09,1.36,0.47,1.98c0.16,0.26,0.4,0.47,0.49,0.8c0.12,0.43-0.05,0.84-0.01,1.29c0.05,0.61,0.65,0.87,0.73,1.47
								c0.06,0.43-0.16,0.94-0.15,1.39c0,0.29,0.1,0.55,0.09,0.85c0,0.58-0.37,1.16-0.76,1.63c-1.36,1.65-2.75,2.6-4.35,3.65
								c-1.34,0.87-3.1,1.65-4.61,2.47c-1.51,0.82-18.8,14.09-21.1,12.52c-2.3-1.57-13.84-18.38-13.84-18.38
								C249.52,205.15,252.52,200.21,252.52,200.21z"/>
							<g id="XMLID_1991_">
								<path id="XMLID_1992_" class="st7" d="M245.82,200.32c0,0,4.2-1.7,6.92-1.53c2.72,0.17,4.74,0.95,6.74,4.16
									c2.67,4.29,7.08,11.7,7.08,11.7s-2.54,5.86-8.58,9.18l-8.13-12.27L245.82,200.32z"/>
							</g>
							<g id="Character_boy_4_">
								<g id="XMLID_1967_">
									<path id="XMLID_1990_" class="st2" d="M232.5,207.74c-1.36,1.06-2.43,2.63-2.97,4.37c-0.48,1.55-0.9,3.68-0.9,6.4v13.95
										l-0.18,26.39c8.85,3.02,20.1,0.36,29.55-10.13c0,0-0.53-33.77-0.53-39.31c0-0.25-0.01-0.5-0.02-0.76
										c-0.34-7.83-7.1-11.46-13.75-7.7l-5.59,3.16L232.5,207.74L232.5,207.74z"/>
									<path id="XMLID_1770_" class="st14" d="M232.5,207.74c-1.36,1.06-2.43,2.63-2.97,4.37c-0.48,1.55-0.9,3.68-0.9,6.4v13.95
										l-0.18,26.39c8.85,3.02,20.1,0.36,29.55-10.13c0,0-0.53-33.77-0.53-39.31c0-0.25-0.01-0.5-0.02-0.76
										c-0.34-7.83-7.1-11.46-13.75-7.7l-5.59,3.16L232.5,207.74L232.5,207.74z"/>
									<g id="XMLID_1969_">
										<g id="XMLID_1980_">
											<path id="XMLID_852_" class="st8" d="M251.68,176.26c-1-1-1.62-2.54-0.43-3.69c0.3-0.29,0.63-0.52,1.04-0.58
												c0.48-0.07,0.91-0.01,1.38-0.12c0.55-0.13,1.11-0.22,1.66-0.38c1.07-0.31,2.09-0.79,3.01-1.4
												c0.08-0.05,0.16-0.1,0.25-0.08c0.1,0.03,0.15,0.15,0.17,0.26c0.47,2.22-0.76,4.56-2.63,5.85
												c-0.67,0.46-1.42,0.81-2.23,0.88C253.11,177.06,252.25,176.83,251.68,176.26z"/>
											<path id="XMLID_1987_" class="st8" d="M233.69,188.45c0,0,1.37,7.09,1.93,8.17c0.55,1.08,1.69,1.12,1.69,1.12l-0.1-5.22
												L233.69,188.45z"/>
											<path id="XMLID_1986_" class="st8" d="M235.41,177.3c0,0-1.48,0.1-2.63,1.78c-1.13,1.64-0.5,5.65,0.91,9.37l2.59-0.35
												L235.41,177.3z"/>
											<path id="XMLID_1984_" class="st15" d="M237.05,187.9c-0.52,0.5-1.26-0.46-1.9-1.06c-0.64-0.6-2.73-1.1-3.77,1.72
												c-1.06,2.87,0.92,5.76,2.57,5.91c2.84,0.27,3.26-1.95,3.26-1.95l0.1,12.11c4.76,5.05,13.1-0.9,9.35-3.14l-0.01-3.59
												c0,0,2.57-0.24,3.82-0.8c2.09-0.93,3.4-3.18,4.03-5.96c1.02-4.46,0.93-7.11,0.59-15.15c-0.23-5.52-10.09-7.23-15-2.35
												C235.18,178.53,237.05,187.9,237.05,187.9z"/>
											<path id="XMLID_1983_" class="st8" d="M237.05,188.9c-0.26,0.08-1.25-1.56-1.9-2.07c-0.9-0.7,0.26-9.53,0.26-9.53
												c-1.04-2.27,0.87-5.71,2.87-7.11c1.49-1.05,3.14-1.44,4.73-1.74c1.98-0.37,3.95-0.58,5.94-0.8
												c1.09-0.11,2.17-0.28,3.23-0.57c1-0.27,1.97-0.79,2.94-1.18c0.29-0.12,0.61-0.23,0.89-0.1c1.19,0.54,0.41,3.37,0.14,4.3
												c-0.45,1.57-1.25,3.04-2.35,4.24c-0.37,0.41-0.78,0.79-1.24,1.09c-0.54,0.36-1.15,0.61-1.77,0.83
												c-2.86,1.02-5.93,1.47-8.97,1.31c-0.57-0.03-1.17-0.08-1.7,0.13c-1.24,0.49-1.18,2.65-1.37,3.74
												C238.31,184.17,237.93,188.65,237.05,188.9z"/>
											<path id="XMLID_1982_" class="st8" d="M235.42,177.97l-3.14-1.1c0.45-1.16,1.51-1.85,2.38-1.54
												C235.52,175.62,235.86,176.81,235.42,177.97z"/>
											<path id="XMLID_1981_" class="st16" d="M246.64,197.9c0,0-4.66,0.16-6.28-0.4c-1.09-0.38-1.99-1.3-2.25-1.97
												c0,0,0.3,1.51,1.28,2.69c1.19,1.44,7.26,1.11,7.26,1.11L246.64,197.9z"/>
										</g>
										<g id="XMLID_1973_">
											<path id="XMLID_1979_" class="st8" d="M246.05,185.47c0,0.62-0.42,1.23-0.93,1.37c-0.52,0.14-0.93-0.25-0.93-0.87
												c0-0.62,0.42-1.23,0.93-1.37C245.64,184.46,246.05,184.85,246.05,185.47z"/>
											<path id="XMLID_1978_" class="st8" d="M244.71,182.33l-2,1.81c-0.29-0.58-0.09-1.46,0.47-1.96
												C243.73,181.68,244.42,181.74,244.71,182.33z"/>
											<path id="XMLID_1977_" class="st16" d="M246.22,191.54l2.13,0.35c-0.21,0.76-0.86,1.3-1.45,1.2
												C246.32,192.99,246.01,192.3,246.22,191.54z"/>
											<path id="XMLID_1976_" class="st8" d="M254.31,180.95l-1.82-1.13c0.37-0.7,1.08-1.02,1.58-0.7
												C254.57,179.43,254.68,180.25,254.31,180.95z"/>
											<path id="XMLID_1975_" class="st8" d="M253.81,183.08c0,0.62-0.42,1.23-0.93,1.37c-0.52,0.14-0.93-0.25-0.93-0.87
												c0-0.62,0.42-1.23,0.93-1.37C253.4,182.08,253.81,182.47,253.81,183.08z"/>
											<polygon id="XMLID_1974_" class="st16" points="249.2,183.45 249.31,189.96 252.66,188.21 											"/>
										</g>
									</g>
								</g>
							</g>
						</g>
					</g>
					<g id="XMLID_1898_">
						<path id="XMLID_1899_" class="st15" d="M219.33,247.65c1.96-26.89,5.94-36.53,12.49-39.36c2.26,1.68,2.81,9.59,0.44,15.59
							c0,0-5.09,17.93-5.38,24.02c-0.25,5.35,0.38,12.74,1.04,16.95c0.12,0.75,0.49,1.33,1.03,1.68c1.43,0.93,1.34,2.29,2.37,3.57
							c0.8,1,1.55,1.18,1.4,1.55c-0.2,0.48-0.92,1.32-2,1.07c-0.54-0.13-0.92-0.39-1.76-0.95c0,0,0.47,1.9,1.85,4
							c1.86,2.85,1.78,4.76-2.6,5.41c-2.74,0.41-4.73-1.3-6.11-8.16c-0.4-1.98-1.33-5.54-1.72-8.1
							C219.27,257.56,219.02,251.98,219.33,247.65z"/>
					</g>
					<path id="XMLID_1897_" class="st7" d="M233.69,206.97c0,0-4.77,1.67-7.18,5.58c-2.41,3.91-4.71,10.2-6.32,21.36
						c0,0,3.02,4.13,10.9,0.7c0,0,3.43-14.24,3.73-19.87C235.14,208.59,233.69,206.97,233.69,206.97z"/>
				</g>
			</g>
		</g>
		<g id="XMLID_1855_">
			<g id="XMLID_1861_">
				<path id="XMLID_1867_" class="st1" d="M268.3,222.71l-0.06-2.92l-3.48-1.98l0,0l0,0v0c-0.28-0.16-0.68-0.14-1.11,0.11
					l-48.48,27.99c-0.87,0.5-1.57,1.72-1.57,2.72l0,14.44c0,0.49,0.17,0.84,0.44,1.01v0l0.01,0.01c0,0,0,0,0,0l3.48,1.99l0.01-3.47
					l46.1-26.57c0.87-0.5,1.57-1.72,1.57-2.72v-10.6H268.3z"/>
				<path id="XMLID_1866_" class="st10" d="M268.24,219.78l-3.48-1.98l0,0l0,0v0c-0.28-0.16-0.68-0.14-1.11,0.11l-48.48,27.99
					c-0.38,0.22-0.72,0.58-0.99,0.99l4.93,2.85l46.12-26.05L268.24,219.78z"/>
				<path id="XMLID_1865_" class="st11" d="M218.64,247.88l48.48-27.99c0.87-0.5,1.57-0.09,1.57,0.91v14.49c0,1-0.7,2.22-1.57,2.72
					l-48.48,27.94c-0.87,0.5-1.57,0.09-1.57-0.91l0-14.44C217.07,249.6,217.77,248.38,218.64,247.88z"/>
			</g>
			<g id="stars_5_">
				<path id="XMLID_1860_" class="st2" d="M223.25,249.23l0.88,1.87c0.06,0.12,0.16,0.16,0.29,0.11l1.97-0.76
					c0.31-0.12,0.44,0.32,0.21,0.75l-1.43,2.68c-0.09,0.17-0.13,0.36-0.11,0.51l0.34,2.42c0.05,0.39-0.27,0.89-0.55,0.86l-1.76-0.22
					c-0.11-0.01-0.24,0.06-0.36,0.21l-1.76,2.26c-0.28,0.36-0.61,0.23-0.55-0.22l0.34-2.81c0.02-0.18-0.02-0.32-0.11-0.39
					l-1.43-1.03c-0.23-0.16-0.1-0.75,0.21-0.99l1.97-1.52c0.12-0.1,0.23-0.26,0.29-0.44l0.88-2.89
					C222.71,249.17,223.11,248.93,223.25,249.23z"/>
				<path id="XMLID_1859_" class="st2" d="M233.24,243.51l0.88,1.87c0.06,0.12,0.16,0.16,0.29,0.11l1.97-0.76
					c0.31-0.12,0.44,0.32,0.21,0.75l-1.43,2.68c-0.09,0.17-0.13,0.36-0.11,0.51l0.34,2.42c0.05,0.39-0.27,0.89-0.55,0.86l-1.76-0.22
					c-0.11-0.01-0.24,0.06-0.36,0.21l-1.76,2.26c-0.28,0.36-0.61,0.23-0.55-0.22l0.34-2.81c0.02-0.18-0.02-0.32-0.11-0.39
					l-1.43-1.03c-0.23-0.16-0.1-0.75,0.21-0.99l1.97-1.52c0.12-0.1,0.23-0.26,0.29-0.44l0.88-2.89
					C232.69,243.45,233.1,243.22,233.24,243.51z"/>
				<path id="XMLID_1858_" class="st2" d="M243.22,237.8l0.88,1.87c0.06,0.12,0.16,0.16,0.29,0.11l1.97-0.76
					c0.31-0.12,0.44,0.32,0.21,0.75l-1.43,2.68c-0.09,0.17-0.13,0.36-0.11,0.51l0.34,2.42c0.05,0.39-0.27,0.89-0.55,0.86l-1.76-0.22
					c-0.11-0.01-0.24,0.06-0.36,0.21l-1.76,2.26c-0.28,0.36-0.61,0.23-0.55-0.22l0.34-2.81c0.02-0.18-0.02-0.32-0.11-0.39
					l-1.43-1.03c-0.23-0.16-0.1-0.75,0.21-0.99l1.97-1.52c0.12-0.1,0.23-0.26,0.29-0.44l0.88-2.89
					C242.68,237.73,243.08,237.5,243.22,237.8z"/>
				<path id="XMLID_1857_" class="st2" d="M253.21,232.08l0.88,1.87c0.06,0.12,0.16,0.16,0.29,0.11l1.97-0.76
					c0.31-0.12,0.44,0.32,0.21,0.75l-1.43,2.68c-0.09,0.17-0.13,0.36-0.11,0.51l0.34,2.42c0.05,0.39-0.27,0.89-0.55,0.86l-1.76-0.22
					c-0.11-0.01-0.24,0.06-0.36,0.21l-1.76,2.26c-0.28,0.36-0.61,0.23-0.55-0.22l0.34-2.81c0.02-0.18-0.02-0.32-0.11-0.39
					l-1.43-1.03c-0.23-0.16-0.1-0.75,0.21-0.99l1.97-1.52c0.12-0.1,0.23-0.26,0.29-0.44l0.88-2.89
					C252.66,232.02,253.07,231.78,253.21,232.08z"/>
				<path id="XMLID_1856_" class="st2" d="M263.19,226.36l0.88,1.87c0.06,0.12,0.16,0.16,0.29,0.11l1.97-0.76
					c0.31-0.12,0.44,0.32,0.21,0.75l-1.43,2.68c-0.09,0.17-0.13,0.36-0.11,0.51l0.34,2.42c0.05,0.39-0.27,0.89-0.55,0.86l-1.76-0.22
					c-0.11-0.01-0.24,0.06-0.36,0.21l-1.76,2.26c-0.28,0.36-0.61,0.23-0.55-0.22l0.34-2.81c0.02-0.18-0.02-0.32-0.11-0.39
					l-1.43-1.03c-0.23-0.16-0.1-0.75,0.21-0.99l1.97-1.52c0.12-0.1,0.23-0.26,0.29-0.44l0.88-2.89
					C262.65,226.3,263.05,226.07,263.19,226.36z"/>
			</g>
		</g>
	</g>
	<g id="XMLID_966_">
		<g id="XMLID_1998_">
			<g id="XMLID_2443_">
				<path id="XMLID_2450_" class="st1" d="M268.3,43.74l-0.06-2.92l-3.48-1.98l0,0l0,0v0c-0.28-0.16-0.68-0.14-1.11,0.11
					l-48.48,27.99c-0.87,0.5-1.57,1.72-1.57,2.72l0,61.66c0,0.49,0.17,0.84,0.44,1.01v0l0.01,0.01c0,0,0,0,0,0l3.48,1.99l0.01-3.47
					l46.1-26.57c0.87-0.5,1.57-1.72,1.57-2.72V43.74H268.3z"/>
				<path id="XMLID_2447_" class="st10" d="M268.24,40.81l-3.48-1.98l0,0l0,0v0c-0.28-0.16-0.68-0.14-1.11,0.11l-48.48,27.99
					c-0.38,0.22-0.72,0.58-0.99,0.99l4.93,2.85l46.12-26.05L268.24,40.81z"/>
				<path id="XMLID_2444_" class="st11" d="M218.64,68.91l48.48-27.99c0.87-0.5,1.57-0.09,1.57,0.91v61.71c0,1-0.7,2.22-1.57,2.72
					l-48.48,27.94c-0.87,0.5-1.57,0.09-1.57-0.91l0-61.66C217.07,70.63,217.77,69.41,218.64,68.91z"/>
			</g>
			<g id="XMLID_2004_">
				<defs>
					<path id="XMLID_2271_" d="M218.64,68.91l48.48-27.99c0.87-0.5,1.57-0.09,1.57,0.91v61.71c0,1-0.7,2.22-1.57,2.72l-48.48,27.94
						c-0.87,0.5-1.57,0.09-1.57-0.91l0-61.66C217.07,70.63,217.77,69.41,218.64,68.91z"/>
				</defs>
				<clipPath id="XMLID_5_">
					<use xlink:href="#XMLID_2271_"  style="overflow:visible;"/>
				</clipPath>
				<g id="XMLID_2302_" class="st17">
					<g id="Character_9_">
						<g id="XMLID_2337_">
							<path id="XMLID_2440_" class="st18" d="M256.1,132.54c-5.44-23.86-11.67-28.07-5.85-33.04c5.98-2.28,9.06,0.98,10.1,7.97
								c0.51,3.42,1.62,17.73,3.01,23.07c1.22,4.7,2.86,10.52,4.69,13.88c0.32,0.6,0.87,0.96,1.5,1.05c1.7,0.24,2.2,1.2,3.59,1.91
								c1.08,0.55,1.89,0.41,1.83,0.79c-0.07,0.49-0.56,1.49-1.71,1.69c-0.58,0.1-1.03,0.02-2.03-0.13c0,0,1,1.45,2.96,2.72
								c2.66,1.72,3.1,3.4-1.12,5.66c-2.65,1.41-5.12,0.72-8.41-4.64c-0.95-1.55-2.43-3.99-3.31-6.22
								C259.07,141.42,256.98,136.38,256.1,132.54z"/>
							<path id="XMLID_851_" class="st7" d="M250.25,99.5c0,0,2.79-1.31,4.83-0.87c2.05,0.44,4.56,2.12,5.45,8.49
								c0,0-0.55,1.98-3.4,3.99L250.25,99.5z"/>
							<g id="XMLID_2362_">
								<path id="XMLID_2432_" class="st2" d="M240.69,102.38L240.69,102.38c-5.91,2.05-6.33,5.46-7.81,9.47
									c-1.13,3.05-1.14,6.23-0.28,8.88l4.12,12.66c0,0-2.68,5.92-4.17,11.59c10.34,3.89,23.25-3.07,26.36-8.77
									c0.13-1.07-0.67-8.92-1.16-14.05c1.82-5.76,2.3-9.24,1.53-12.52c-1.43-6.09-6.96-10.91-9.41-10.03L240.69,102.38z"/>
								<path id="XMLID_1_" class="st9" d="M240.69,102.38L240.69,102.38c-5.91,2.05-6.33,5.46-7.81,9.47
									c-1.13,3.05-1.14,6.23-0.28,8.88l4.12,12.66c0,0-2.68,5.92-4.17,11.59c10.34,3.89,23.25-3.07,26.36-8.77
									c0.13-1.07-0.67-8.92-1.16-14.05c1.82-5.76,2.3-9.24,1.53-12.52c-1.43-6.09-6.96-10.91-9.41-10.03L240.69,102.38z"/>
								<g id="XMLID_2368_">
									<g id="XMLID_2422_">
										<path id="XMLID_2427_" class="st8" d="M247.72,94.23l-4.36,1.19c-6.07,1.66-11.02-2.68-11.05-9.69v0
											c-0.03-8.4,5.84-16.81,13.12-18.8l0,0c7.28-1.99,13.21,3.21,13.24,11.61l0,0C258.7,85.54,253.79,92.57,247.72,94.23z"/>
										<path id="XMLID_2426_" class="st8" d="M242.02,64.27c1.88,2.7-0.11,5.42-2.89,8.33s-5.27,4.92-7.15,2.23
											c-1.88-2.7-0.85-6.54,1.92-9.46C236.68,62.45,240.14,61.57,242.02,64.27z"/>
										<path id="XMLID_2423_" class="st8" d="M235.24,75.98l-2.79,3.13c-0.61-0.72-0.47-2.01,0.3-2.87
											C233.52,75.38,234.63,75.26,235.24,75.98z"/>
									</g>
									<g id="XMLID_2370_">
										<g id="XMLID_2417_">
											<path id="XMLID_2418_" class="st18" d="M253.58,71.52c1.4,0.57,3.13,4.14,2.99,12.65c-0.12,7.22-2.13,9.54-3.14,10.33
												c-1.01,0.79-2.96,1.01-4.86,1.16l0.11,4.33c0,0,3.2,2.17,3.04,4.19c-0.16,2.02-4.44,4.08-6.9,2.82
												c-2.14-1.1-3.99-2.8-4.43-3.22c-0.07-0.06-0.1-0.16-0.1-0.27l-0.01-10.88c0,0-1.11,1.56-3.01,0.16
												c-1.57-1.15-2.11-3.67-0.89-5.43c1.21-1.76,3.47-1.99,4.34-0.19c0,0,3.03-0.7,7.05-4.35
												C251.79,79.18,253.33,74.38,253.58,71.52z"/>
										</g>
										<g id="XMLID_2400_">
											<path id="XMLID_2401_" class="st8" d="M248.95,84.18c0.02,0.51-0.31,1.04-0.74,1.18c-0.43,0.14-0.8-0.16-0.83-0.67
												c-0.02-0.51,0.31-1.04,0.74-1.18C248.55,83.36,248.92,83.66,248.95,84.18z"/>
										</g>
										<g id="XMLID_2396_">
											<path id="XMLID_2399_" class="st19" d="M249.85,90.29l1.82,0.17c-0.15,0.64-0.68,1.12-1.18,1.07
												C249.99,91.49,249.71,90.94,249.85,90.29z"/>
										</g>
										<g id="XMLID_2391_">
											<path id="XMLID_2395_" class="st8" d="M256.03,79.75l-1.59-0.83c0.29-0.6,0.88-0.9,1.31-0.67
												C256.19,78.47,256.31,79.15,256.03,79.75z"/>
										</g>
										<g id="XMLID_2388_">
											<path id="XMLID_2390_" class="st8" d="M255.8,81.95c0.02,0.51-0.31,1.04-0.74,1.18c-0.43,0.14-0.8-0.16-0.83-0.67
												c-0.02-0.51,0.31-1.04,0.74-1.18C255.41,81.13,255.78,81.43,255.8,81.95z"/>
										</g>
										<g id="XMLID_2386_">
											<polygon id="XMLID_2387_" class="st19" points="252.15,81.96 252.12,87.85 254.6,86.29 											"/>
										</g>
										<path id="XMLID_982_" class="st2" d="M259.07,80.62c-0.21-1.41-1.6-2.05-3.08-1.57l-0.14,0.04
											c-1.08,0.35-2.05,1.24-2.51,2.27c-0.38-0.18-0.89-0.18-1.48,0.03c-0.49,0.18-0.94,0.49-1.29,0.84
											c-0.56-0.69-1.58-0.94-2.65-0.6l-0.14,0.04c-1.37,0.44-2.55,1.75-2.77,3.12l-4.87,1.61c0.09,0.08,0.25,0.24,0.34,0.37
											l4.5-1.49c0.03,1.59,1.36,2.48,2.95,1.98l0.43-0.14c1.63-0.52,2.87-2.33,2.64-3.92c-0.03-0.23-0.11-0.43-0.2-0.61
											c0.29-0.31,0.68-0.59,1.11-0.75c0.51-0.19,0.96-0.17,1.24,0.02c-0.06,0.22-0.1,0.45-0.11,0.67
											c-0.06,1.69,1.32,2.65,2.96,2.13l0.43-0.14C258.07,84.02,259.31,82.22,259.07,80.62z M250.53,84.1
											c-0.16,1.16-1.15,2.24-2.28,2.6l-0.26,0.08c-1.13,0.36-2.2-0.06-2.47-1.08c-0.37-1.38,0.7-3.04,2.14-3.5l0.43-0.14
											C249.53,81.61,250.74,82.54,250.53,84.1z M258.6,81.5c-0.16,1.16-1.15,2.24-2.28,2.6l-0.26,0.08
											c-1.13,0.36-2.2-0.06-2.47-1.08c-0.37-1.38,0.7-3.04,2.14-3.5l0.43-0.14C257.61,79.01,258.81,79.94,258.6,81.5z"/>
										<g id="XMLID_2371_">
											<path id="XMLID_2379_" class="st19" d="M248.57,95.66c-2,0.24-6.12,0-6.77-1.7c0,0,0.22,1.12,1.45,2
												c1.23,0.88,5.36,1.14,5.36,1.14L248.57,95.66z"/>
										</g>
									</g>
								</g>
								<path id="XMLID_2363_" class="st9" d="M243.33,143.38c-3.4-0.02-5.55-3.41-4.65-7.54c0.03-0.16,0.07-0.29,0.11-0.4
									c0.66-2.02,2.09-2.16,2.09-2.16l0,0c-1.34-0.67-1.97-2.25-2.29-3.99l-1.56-8.05c0,0-0.28-1.83,0.32-4.27l-4.16-4.44
									c0,0-0.3,0.32-0.77,0.82c-0.65,2.58-0.55,5.18,0.17,7.39l4.12,12.66c0,0-2.54,5.44-4.17,11.59
									c7.62,2.87,16.63-0.16,22.1-4.23C250.33,142.67,246.34,143.39,243.33,143.38z"/>
							</g>
						</g>
					</g>
					<g id="XMLID_2303_">
						<g id="XMLID_2328_">
							<path id="XMLID_2336_" class="st18" d="M221.97,141.66c4.6-22.93,7.5-32.82,12.54-36.31c1.48-1.03,3.41-1.69,3.41-1.69
								c0.69,0.26,0.76,1.78,0.9,2.75c0.48,3.44-0.39,8.96-2.62,13.13c0,0-6.71,18.14-7.78,24.24c-0.94,5.34-2,12.01-1.94,16.38
								c0.01,0.79,0.28,1.48,0.74,1.93c1.23,1.21,1.23,2.44,2.03,3.93c0.62,1.16,1.3,1.48,1.11,1.83c-0.25,0.45-1.04,1.16-2.01,0.71
								c-0.49-0.23-0.81-0.56-1.53-1.28c0,0,0.19,2,1.21,4.38c1.38,3.22,1.04,5.14-3.15,4.98c-2.63-0.1-4.28-2.18-4.67-9.36
								c-0.11-2.07-0.28-5.34-0.07-8.05C220.7,152.16,221.1,145.97,221.97,141.66z"/>
						</g>
					</g>
					<path id="XMLID_849_" class="st7" d="M238.32,103.43c0,0-4.47-0.15-6.68,3.69c-2.31,4.04-3.52,8.37-3.52,8.37
						c0.8,1.69,5.3,6.12,7.48,6.67c0,0,0.92-1.66,1.92-4.49C238.84,113.93,240.9,107.55,238.32,103.43z"/>
				</g>
			</g>
		</g>
		<g id="XMLID_1868_">
			<g id="XMLID_1874_">
				<path id="XMLID_1877_" class="st1" d="M268.3,117.01l-0.06-2.92l-3.48-1.98l0,0l0,0v0c-0.28-0.16-0.68-0.14-1.11,0.11
					l-48.48,27.99c-0.87,0.5-1.57,1.72-1.57,2.72l0,14.44c0,0.49,0.17,0.84,0.44,1.01v0l0.01,0.01c0,0,0,0,0,0l3.48,1.99l0.01-3.47
					l46.1-26.57c0.87-0.5,1.57-1.72,1.57-2.72v-10.6H268.3z"/>
				<path id="XMLID_1876_" class="st10" d="M268.24,114.08l-3.48-1.98l0,0l0,0v0c-0.28-0.16-0.68-0.14-1.11,0.11l-48.48,27.99
					c-0.38,0.22-0.72,0.58-0.99,0.99l4.93,2.85l46.12-26.05L268.24,114.08z"/>
				<path id="XMLID_1875_" class="st11" d="M218.64,142.18l48.48-27.99c0.87-0.5,1.57-0.09,1.57,0.91v14.49c0,1-0.7,2.22-1.57,2.72
					l-48.48,27.94c-0.87,0.5-1.57,0.09-1.57-0.91l0-14.44C217.07,143.9,217.77,142.68,218.64,142.18z"/>
			</g>
			<g id="stars_6_">
				<path id="XMLID_1873_" class="st2" d="M223.25,143.53l0.88,1.87c0.06,0.12,0.16,0.16,0.29,0.11l1.97-0.76
					c0.31-0.12,0.44,0.32,0.21,0.75l-1.43,2.68c-0.09,0.17-0.13,0.36-0.11,0.51l0.34,2.42c0.05,0.39-0.27,0.89-0.55,0.86l-1.76-0.22
					c-0.11-0.01-0.24,0.06-0.36,0.21l-1.76,2.26c-0.28,0.36-0.61,0.23-0.55-0.22l0.34-2.81c0.02-0.18-0.02-0.32-0.11-0.39
					l-1.43-1.03c-0.23-0.16-0.1-0.75,0.21-0.99l1.97-1.52c0.12-0.1,0.23-0.26,0.29-0.44l0.88-2.89
					C222.71,143.47,223.11,143.23,223.25,143.53z"/>
				<path id="XMLID_1872_" class="st2" d="M233.24,137.82l0.88,1.87c0.06,0.12,0.16,0.16,0.29,0.11l1.97-0.76
					c0.31-0.12,0.44,0.32,0.21,0.75l-1.43,2.68c-0.09,0.17-0.13,0.36-0.11,0.51l0.34,2.42c0.05,0.39-0.27,0.89-0.55,0.86l-1.76-0.22
					c-0.11-0.01-0.24,0.06-0.36,0.21l-1.76,2.26c-0.28,0.36-0.61,0.23-0.55-0.22l0.34-2.81c0.02-0.18-0.02-0.32-0.11-0.39
					l-1.43-1.03c-0.23-0.16-0.1-0.75,0.21-0.99l1.97-1.52c0.12-0.1,0.23-0.26,0.29-0.44l0.88-2.89
					C232.69,137.75,233.1,137.52,233.24,137.82z"/>
				<path id="XMLID_1871_" class="st2" d="M243.22,132.1l0.88,1.87c0.06,0.12,0.16,0.16,0.29,0.11l1.97-0.76
					c0.31-0.12,0.44,0.32,0.21,0.75l-1.43,2.68c-0.09,0.17-0.13,0.36-0.11,0.51l0.34,2.42c0.05,0.39-0.27,0.89-0.55,0.86l-1.76-0.22
					c-0.11-0.01-0.24,0.06-0.36,0.21l-1.76,2.26c-0.28,0.36-0.61,0.23-0.55-0.22l0.34-2.81c0.02-0.18-0.02-0.32-0.11-0.39
					l-1.43-1.03c-0.23-0.16-0.1-0.75,0.21-0.99l1.97-1.52c0.12-0.1,0.23-0.26,0.29-0.44l0.88-2.89
					C242.68,132.04,243.08,131.8,243.22,132.1z"/>
				<path id="XMLID_1870_" class="st2" d="M253.21,126.38l0.88,1.87c0.06,0.12,0.16,0.16,0.29,0.11l1.97-0.76
					c0.31-0.12,0.44,0.32,0.21,0.75l-1.43,2.68c-0.09,0.17-0.13,0.36-0.11,0.51l0.34,2.42c0.05,0.39-0.27,0.89-0.55,0.86l-1.76-0.22
					c-0.11-0.01-0.24,0.06-0.36,0.21l-1.76,2.26c-0.28,0.36-0.61,0.23-0.55-0.22l0.34-2.81c0.02-0.18-0.02-0.32-0.11-0.39
					l-1.43-1.03c-0.23-0.16-0.1-0.75,0.21-0.99l1.97-1.52c0.12-0.1,0.23-0.26,0.29-0.44l0.88-2.89
					C252.66,126.32,253.07,126.08,253.21,126.38z"/>
				<path id="XMLID_1869_" class="st1" d="M263.19,120.67l0.88,1.87c0.06,0.12,0.16,0.16,0.29,0.11l1.97-0.76
					c0.31-0.12,0.44,0.32,0.21,0.75l-1.43,2.68c-0.09,0.17-0.13,0.36-0.11,0.51l0.34,2.42c0.05,0.38-0.27,0.89-0.55,0.86l-1.76-0.22
					c-0.11-0.01-0.24,0.06-0.36,0.21l-1.76,2.26c-0.28,0.36-0.61,0.23-0.55-0.22l0.34-2.81c0.02-0.18-0.02-0.32-0.11-0.39
					l-1.43-1.03c-0.23-0.16-0.1-0.75,0.21-0.99l1.97-1.52c0.12-0.1,0.23-0.26,0.29-0.44l0.88-2.89
					C262.65,120.6,263.05,120.37,263.19,120.67z"/>
			</g>
		</g>
	</g>
	<g id="XMLID_985_">
		<g id="XMLID_1388_">
			<g id="XMLID_1340_">
				<path id="XMLID_1387_" class="st1" d="M202.61,186.87l-0.06-2.92l-3.48-1.98l0,0l0,0v0c-0.28-0.16-0.68-0.14-1.11,0.11
					l-48.48,27.99c-0.87,0.5-1.57,1.72-1.57,2.72l0,61.66c0,0.49,0.17,0.84,0.44,1.01v0l0.01,0.01c0,0,0,0,0,0l3.48,1.99l0.01-3.47
					l46.1-26.57c0.87-0.5,1.57-1.72,1.57-2.72v-57.82H202.61z"/>
				<path id="XMLID_1378_" class="st10" d="M202.55,183.94l-3.48-1.98l0,0l0,0v0c-0.28-0.16-0.68-0.14-1.11,0.11l-48.48,27.99
					c-0.38,0.22-0.72,0.58-0.99,0.99l4.93,2.85l46.12-26.05L202.55,183.94z"/>
				<path id="XMLID_1345_" class="st11" d="M152.95,212.04l48.48-27.99c0.87-0.5,1.57-0.09,1.57,0.91v61.71c0,1-0.7,2.22-1.57,2.72
					l-48.48,27.94c-0.87,0.5-1.57,0.09-1.57-0.91l0-61.66C151.38,213.76,152.09,212.54,152.95,212.04z"/>
			</g>
			<g id="XMLID_991_">
				<defs>
					<path id="XMLID_996_" d="M152.95,212.04l48.48-27.99c0.87-0.5,1.57-0.09,1.57,0.91v61.71c0,1-0.7,2.22-1.57,2.72l-48.48,27.94
						c-0.87,0.5-1.57,0.09-1.57-0.91l0-61.66C151.38,213.76,152.09,212.54,152.95,212.04z"/>
				</defs>
				<clipPath id="XMLID_6_">
					<use xlink:href="#XMLID_996_"  style="overflow:visible;"/>
				</clipPath>
				<g id="XMLID_1005_" class="st20">
					<path id="XMLID_1234_" class="st13" d="M191.53,273.91c-5.85-25.64-12.88-30.29-6.63-35.63c7.27-1.11,10.08,1.18,11.2,8.69
						c0.55,3.67,1.74,19.04,3.23,24.79c1.31,5.05,3.07,11.3,5.04,14.91c0.35,0.64,0.93,1.03,1.61,1.12
						c1.83,0.26,2.37,1.29,3.85,2.05c1.17,0.59,2.03,0.44,1.97,0.85c-0.07,0.53-0.6,1.6-1.84,1.82c-0.62,0.11-1.11,0.02-2.18-0.14
						c0,0,1.07,1.56,3.18,2.92c2.86,1.85,3.33,3.66-1.21,6.08c-2.84,1.51-5.51,0.78-9.03-4.99c-1.02-1.66-2.61-4.29-3.55-6.68
						C194.72,283.45,192.47,278.04,191.53,273.91z"/>
					<path id="XMLID_850_" class="st8" d="M184.9,238.29c0,0,3.76-1.13,6.53,0c2.77,1.13,5,2.72,5.73,13.57l-5.63,3.25L184.9,238.29
						z"/>
					<g id="XMLID_518_">
						<path id="XMLID_798_" class="st2" d="M160.66,241.31L160.66,241.31c5.1,0,9.23-4.13,9.23-9.23v-12.78l0,0
							c-5.1,0-9.23,4.13-9.23,9.23V241.31z"/>
						<path id="XMLID_835_" class="st21" d="M160.66,241.31L160.66,241.31c5.1,0,9.23-4.13,9.23-9.23v-12.78l0,0
							c-5.1,0-9.23,4.13-9.23,9.23V241.31z"/>
					</g>
					<g id="XMLID_1197_">
						<g id="XMLID_1206_">
							<path id="XMLID_1208_" class="st2" d="M183.08,234.43c-7.58,2.28-15.21-3.4-15.21-11.31l0,0c0-8.4,5.9-16.79,13.17-18.74
								l0.98-0.26c7.28-1.95,13.17,3.28,13.17,11.68v2.34C195.19,225.65,190.27,232.27,183.08,234.43L183.08,234.43z"/>
						</g>
						<path id="XMLID_817_" class="st22" d="M183.08,234.43c-7.58,2.28-15.21-3.4-15.21-11.31l0,0c0-8.4,5.9-16.79,13.17-18.74
							l0.98-0.26c7.28-1.95,13.17,3.28,13.17,11.68v2.34C195.19,225.65,190.27,232.27,183.08,234.43L183.08,234.43z"/>
					</g>
					<g id="XMLID_519_">
						<path id="XMLID_1190_" class="st2" d="M172.39,207.86c-0.72-0.71-1.93-0.44-2.71,0.6l1.45,1.43
							c-0.31-0.04-0.65,0.02-0.99,0.19c-1.04,0.53-1.7,1.88-1.48,3.02l3.75-1.92c-0.02-0.09-0.05-0.17-0.08-0.26
							C173.05,209.89,173.09,208.54,172.39,207.86z"/>
						<path id="XMLID_833_" class="st22" d="M172.39,207.86c-0.72-0.71-1.93-0.44-2.71,0.6l1.45,1.43
							c-0.31-0.04-0.65,0.02-0.99,0.19c-1.04,0.53-1.7,1.88-1.48,3.02l3.75-1.92c-0.02-0.09-0.05-0.17-0.08-0.26
							C173.05,209.89,173.09,208.54,172.39,207.86z"/>
					</g>
					<g id="XMLID_1183_">
						<g id="XMLID_1187_">
							<path id="XMLID_1188_" class="st5" d="M176.15,240.92c0,0-7.98,1.89-8.94,2.64c5.77,6.19,1.05,19.26,1.05,19.26l3.21,11.16
								c-3.22,5.62-4.86,9.38-6.58,15.06c-1.92,6.34-3.14,11.11-4.61,30.2c7.58,6.04,32.83-0.56,39.25-12c0,0-1.97-12.52-4.53-24.15
								c-1.87-8.49-3.71-13.08-3.25-16.14c3.38-12.93,3.65-16.15,3.05-18.67c-1.69-7.1-8.35-10.42-10-9.98L176.15,240.92z"/>
						</g>
					</g>
					<g id="XMLID_1180_">
						<g id="XMLID_1181_">
							<path id="XMLID_1182_" class="st13" d="M190.05,208.79c1.44,0.6,3.23,4.31,3.05,13.15c-0.15,7.49-2.24,9.89-3.29,10.7
								c-1.05,0.81-3.07,1.03-5.04,1.18v4.47c0,0,2.72,2.92,2.55,5.01c-0.17,2.1-3.93,3.59-6.47,2.27
								c-2.55-1.32-4.69-4.65-4.69-4.65l0.04-10.29c0,0-1.16,1.61-3.12,0.15c-1.62-1.2-2.17-3.82-0.9-5.64
								c1.26-1.82,3.6-2.04,4.49-0.17c0,0,1.09-3.8,5.63-6.73C186.39,215.61,188.62,213.23,190.05,208.79z"/>
						</g>
					</g>
					<g id="XMLID_520_">
						<path id="XMLID_1176_" class="st8" d="M185.9,222c0.02,0.53-0.32,1.08-0.77,1.22c-0.45,0.14-0.83-0.17-0.85-0.7
							c-0.02-0.53,0.32-1.08,0.77-1.22C185.49,221.15,185.88,221.47,185.9,222z"/>
						<path id="XMLID_1173_" class="st23" d="M186.12,228.25l1.88,0.19c-0.16,0.66-0.7,1.16-1.23,1.11
							C186.25,229.5,185.96,228.92,186.12,228.25z"/>
						<path id="XMLID_1170_" class="st8" d="M192.55,217.34l-1.64-0.87c0.3-0.62,0.91-0.93,1.36-0.69
							C192.72,216.02,192.85,216.72,192.55,217.34z"/>
						<path id="XMLID_1167_" class="st8" d="M183.54,220.45l1.64-1.75c-0.3-0.46-0.91-0.44-1.36,0.04
							C183.36,219.22,183.24,219.99,183.54,220.45z"/>
						<path id="XMLID_1113_" class="st8" d="M192.17,219.64c0.02,0.53-0.32,1.08-0.77,1.22c-0.45,0.14-0.83-0.17-0.85-0.7
							c-0.02-0.53,0.32-1.08,0.77-1.22C191.77,218.8,192.15,219.11,192.17,219.64z"/>
						<polygon id="XMLID_1035_" class="st23" points="188.34,220.13 188.47,225.73 191.04,224.12 						"/>
						<path id="XMLID_1026_" class="st23" d="M184.77,233.82c-2.07,0.24-6.34-0.03-7.01-1.8c0,0,0.22,1.16,1.5,2.08
							c1.27,0.92,5.51,1.21,5.51,1.21V233.82z"/>
					</g>
					<g id="XMLID_998_">
						<g id="XMLID_999_">
							<path id="XMLID_1000_" class="st13" d="M153.46,283.61c4.94-24.64,8.36-36.27,13.76-40.04c2.71,0.28,3.53,3.88,3.82,5.93
								c0.51,3.69-0.37,8.85-2.76,13.33c0,0-6.73,16.5-7.88,23.05c-1.01,5.73-2.15,12.9-2.08,17.6c0.01,0.84,0.3,1.59,0.8,2.08
								c1.32,1.3,1.33,2.62,2.18,4.22c0.67,1.25,1.4,1.58,1.19,1.96c-0.27,0.48-1.11,1.25-2.16,0.76c-0.53-0.24-0.87-0.6-1.64-1.38
								c0,0,0.21,2.15,1.3,4.7c1.48,3.46,1.12,5.52-3.38,5.35c-2.82-0.1-4.59-2.34-5.02-10.06c-0.12-2.22-0.31-5.73-0.07-8.65
								C152.09,294.88,152.53,288.24,153.46,283.61z"/>
						</g>
					</g>
					<path id="XMLID_838_" class="st8" d="M168.12,243.18c-2.21,0.77-4.36,2.95-6.4,7.69c-2.04,4.74-4.49,14.57-4.49,14.57
						s4.34,4.58,9.13,3.21c0,0,3.72-7.73,4.66-11.79C171.97,252.81,172.69,245.52,168.12,243.18z"/>
				</g>
			</g>
		</g>
		<g id="XMLID_1613_">
			<g id="XMLID_1629_">
				<path id="XMLID_1640_" class="st1" d="M202.61,260.12l-0.06-2.92l-3.48-1.98l0,0l0,0v0c-0.28-0.16-0.68-0.14-1.11,0.11
					l-48.48,27.99c-0.87,0.5-1.57,1.72-1.57,2.72l0,14.44c0,0.49,0.17,0.84,0.44,1.01v0l0.01,0.01c0,0,0,0,0,0l3.48,1.99l0.01-3.47
					l46.1-26.57c0.87-0.5,1.57-1.72,1.57-2.72v-10.6H202.61z"/>
				<path id="XMLID_1637_" class="st10" d="M202.55,257.19l-3.48-1.98l0,0l0,0v0c-0.28-0.16-0.68-0.14-1.11,0.11l-48.48,27.99
					c-0.38,0.22-0.72,0.58-0.99,0.99l4.93,2.85l46.12-26.05L202.55,257.19z"/>
				<path id="XMLID_1633_" class="st11" d="M152.95,285.29l48.48-27.99c0.87-0.5,1.57-0.09,1.57,0.91v14.49c0,1-0.7,2.22-1.57,2.72
					l-48.48,27.94c-0.87,0.5-1.57,0.09-1.57-0.91l0-14.44C151.38,287.01,152.09,285.79,152.95,285.29z"/>
			</g>
			<g id="stars_2_">
				<path id="XMLID_1625_" class="st2" d="M157.57,286.64l0.88,1.87c0.06,0.12,0.16,0.16,0.29,0.11l1.97-0.76
					c0.31-0.12,0.44,0.32,0.21,0.75l-1.43,2.68c-0.09,0.17-0.13,0.36-0.11,0.51l0.34,2.42c0.05,0.39-0.27,0.89-0.55,0.86l-1.76-0.22
					c-0.11-0.01-0.24,0.06-0.36,0.21l-1.76,2.26c-0.28,0.36-0.61,0.23-0.55-0.22l0.34-2.81c0.02-0.18-0.02-0.32-0.11-0.39
					l-1.43-1.03c-0.23-0.16-0.1-0.75,0.21-0.99l1.97-1.52c0.12-0.1,0.23-0.26,0.29-0.44l0.88-2.89
					C157.02,286.58,157.43,286.34,157.57,286.64z"/>
				<path id="XMLID_1622_" class="st2" d="M167.55,280.92l0.88,1.87c0.06,0.12,0.16,0.16,0.29,0.11l1.97-0.76
					c0.31-0.12,0.44,0.32,0.21,0.75l-1.43,2.68c-0.09,0.17-0.13,0.36-0.11,0.51l0.34,2.42c0.05,0.39-0.27,0.89-0.55,0.86l-1.76-0.22
					c-0.11-0.01-0.24,0.06-0.36,0.21l-1.76,2.26c-0.28,0.36-0.61,0.23-0.55-0.22l0.34-2.81c0.02-0.18-0.02-0.32-0.11-0.39
					l-1.43-1.03c-0.23-0.16-0.1-0.75,0.21-0.99l1.97-1.52c0.12-0.1,0.23-0.26,0.29-0.44l0.88-2.89
					C167.01,280.86,167.41,280.63,167.55,280.92z"/>
				<path id="XMLID_1619_" class="st2" d="M177.54,275.21l0.88,1.87c0.06,0.12,0.16,0.16,0.29,0.11l1.97-0.76
					c0.31-0.12,0.44,0.32,0.21,0.75l-1.43,2.68c-0.09,0.17-0.13,0.36-0.11,0.51l0.34,2.42c0.05,0.39-0.27,0.89-0.55,0.86l-1.76-0.22
					c-0.11-0.01-0.24,0.06-0.36,0.21l-1.76,2.26c-0.28,0.36-0.61,0.23-0.55-0.22l0.34-2.81c0.02-0.18-0.02-0.32-0.11-0.39
					l-1.43-1.03c-0.23-0.16-0.1-0.75,0.21-0.99l1.97-1.52c0.12-0.1,0.23-0.26,0.29-0.44l0.88-2.89
					C176.99,275.14,177.4,274.91,177.54,275.21z"/>
				<path id="XMLID_1617_" class="st2" d="M187.52,269.49l0.88,1.87c0.06,0.12,0.16,0.16,0.29,0.11l1.97-0.76
					c0.31-0.12,0.44,0.32,0.21,0.75l-1.43,2.68c-0.09,0.17-0.13,0.36-0.11,0.51l0.34,2.42c0.05,0.39-0.27,0.89-0.55,0.86l-1.76-0.22
					c-0.11-0.01-0.24,0.06-0.36,0.21l-1.76,2.26c-0.28,0.36-0.61,0.23-0.55-0.22l0.34-2.81c0.02-0.18-0.02-0.32-0.11-0.39
					l-1.43-1.03c-0.23-0.16-0.1-0.75,0.21-0.99l1.97-1.52c0.12-0.1,0.23-0.26,0.29-0.44l0.88-2.89
					C186.98,269.43,187.38,269.19,187.52,269.49z"/>
				<path id="XMLID_1653_" class="st1" d="M187.36,277.72l1.76,0.22c0.28,0.03,0.61-0.47,0.55-0.86l-0.34-2.42
					c-0.02-0.15,0.02-0.35,0.11-0.51l1.43-2.68c0.23-0.43,0.1-0.87-0.21-0.75l-1.97,0.76c-0.12,0.05-0.23,0.01-0.29-0.11l-0.88-1.87
					c-0.07-0.15-0.21-0.16-0.34-0.09v8.36C187.24,277.73,187.3,277.72,187.36,277.72z"/>
				<path id="XMLID_1615_" class="st1" d="M197.51,263.77l0.88,1.87c0.06,0.12,0.16,0.16,0.29,0.11l1.97-0.76
					c0.31-0.12,0.44,0.32,0.21,0.75l-1.43,2.68c-0.09,0.17-0.13,0.36-0.11,0.51l0.34,2.42c0.05,0.39-0.27,0.89-0.55,0.86l-1.76-0.22
					c-0.11-0.01-0.24,0.06-0.36,0.21l-1.76,2.26c-0.28,0.36-0.61,0.23-0.55-0.22l0.34-2.81c0.02-0.18-0.02-0.32-0.11-0.39
					l-1.43-1.03c-0.23-0.16-0.1-0.75,0.21-0.99l1.97-1.52c0.12-0.1,0.23-0.26,0.29-0.44l0.88-2.89
					C196.96,263.71,197.37,263.48,197.51,263.77z"/>
			</g>
		</g>
	</g>
	<g id="XMLID_973_">
		<g id="XMLID_1672_">
			<g id="XMLID_1811_">
				<path id="XMLID_1854_" class="st1" d="M202.61,81.64l-0.06-2.92l-3.48-1.98l0,0l0,0v0c-0.28-0.16-0.68-0.14-1.11,0.11
					l-48.48,27.99c-0.87,0.5-1.57,1.72-1.57,2.72l0,61.66c0,0.49,0.17,0.84,0.44,1v0l0.01,0.01c0,0,0,0,0,0l3.48,1.99l0.01-3.47
					l46.1-26.57c0.87-0.5,1.57-1.72,1.57-2.72V81.64H202.61z"/>
				<path id="XMLID_1813_" class="st10" d="M202.55,78.71l-3.48-1.98l0,0l0,0v0c-0.28-0.16-0.68-0.14-1.11,0.11l-48.48,27.99
					c-0.38,0.22-0.72,0.58-0.99,0.99l4.93,2.85l46.12-26.05L202.55,78.71z"/>
				<path id="XMLID_1812_" class="st11" d="M152.95,106.81l48.48-27.99c0.87-0.5,1.57-0.09,1.57,0.91v61.71c0,1-0.7,2.22-1.57,2.72
					l-48.48,27.94c-0.87,0.5-1.57,0.09-1.57-0.91l0-61.66C151.38,108.53,152.09,107.32,152.95,106.81z"/>
			</g>
			<g id="XMLID_1654_">
				<defs>
					<path id="XMLID_2451_" d="M152.95,106.81l48.48-27.99c0.87-0.5,1.57-0.09,1.57,0.91v61.71c0,1-0.7,2.22-1.57,2.72l-48.48,27.94
						c-0.87,0.5-1.57,0.09-1.57-0.91l0-61.66C151.38,108.53,152.09,107.31,152.95,106.81z"/>
				</defs>
				<clipPath id="XMLID_7_">
					<use xlink:href="#XMLID_2451_"  style="overflow:visible;"/>
				</clipPath>
				<g id="XMLID_2452_" class="st24">
					<g id="XMLID_2456_">
						<g id="Character_boy_9_">
							<path id="XMLID_2504_" class="st13" d="M186.83,132.89c0,0,3.81-1.18,6.98,3.83c2.16,3.4,9.7,16.33,9.7,16.33
								s14.67-7.78,15.49-8.79c0.83-1.02,0.78-3.08,0.9-4.19c0.21-1.86-0.47-3.45-0.57-4.12c-0.17-1.17,1.51-1.23,2.34,0.39
								c0.61,1.18,0.65,2.53,1.18,2.55c0.18,0.01,1.82-1.49,2.06-1.76c0.91-0.99,2.55-2.66,3.8-2.43c0.41,0.08,0.73,0.42,0.83,0.89
								c0.15,0.74,0.09,1.36,0.47,1.98c0.16,0.26,0.4,0.47,0.49,0.8c0.12,0.43-0.05,0.84-0.01,1.29c0.05,0.61,0.65,0.87,0.73,1.47
								c0.06,0.43-0.16,0.94-0.15,1.39c0,0.29,0.1,0.55,0.09,0.85c0,0.58-0.37,1.16-0.76,1.63c-1.36,1.65-2.75,2.6-4.35,3.65
								c-1.34,0.87-3.1,1.65-4.61,2.47c-1.51,0.82-18.8,14.09-21.1,12.52c-2.3-1.57-13.84-18.38-13.84-18.38
								C183.84,137.83,186.83,132.89,186.83,132.89z"/>
							<g id="XMLID_2501_">
								<path id="XMLID_2502_" class="st2" d="M180.14,133c0,0,4.2-1.7,6.92-1.53c2.72,0.17,4.74,0.95,6.74,4.16
									c2.67,4.29,7.08,11.7,7.08,11.7s-2.54,5.86-8.58,9.18l-8.13-12.27L180.14,133z"/>
							</g>
							<g id="XMLID_1275_" class="st25">
								<path id="XMLID_1767_" d="M180.14,133c0,0,4.2-1.7,6.92-1.53c2.72,0.17,4.74,0.95,6.74,4.16c2.67,4.29,7.08,11.7,7.08,11.7
									s-2.54,5.86-8.58,9.18l-8.13-12.27L180.14,133z"/>
							</g>
							<g id="Character_boy_10_">
								<g id="XMLID_2458_">
									<path id="XMLID_2500_" class="st7" d="M166.81,140.42c-1.36,1.06-2.43,2.63-2.97,4.37c-0.48,1.55-0.9,3.68-0.9,6.4v13.95
										l-0.18,26.39c8.85,3.02,20.1,0.36,29.55-10.13c0,0-0.53-33.77-0.53-39.31c0-0.25-0.01-0.5-0.02-0.76
										c-0.34-7.83-7.1-11.46-13.75-7.7l-5.59,3.16L166.81,140.42L166.81,140.42z"/>
									<g id="XMLID_2466_">
										<g id="XMLID_2489_">
											<path id="XMLID_2496_" class="st8" d="M172.87,111.72c0,5.95,4.18,9.66,9.33,8.27c5.15-1.38,9.33-7.32,9.33-13.27
												c0-5.95-4.45-5.95-9.6-4.57C176.78,103.53,172.87,105.77,172.87,111.72z"/>
											<path id="XMLID_2495_" class="st8" d="M168,121.13c0,0,1.37,7.09,1.93,8.17c0.55,1.08,1.69,1.12,1.69,1.12l-0.1-5.22
												L168,121.13z"/>
											<path id="XMLID_2494_" class="st8" d="M169.73,109.99c0,0-1.48,0.1-2.63,1.78c-1.13,1.64-0.5,5.65,0.91,9.37l2.59-0.35
												L169.73,109.99z"/>
											<path id="XMLID_2493_" class="st26" d="M171.37,120.58c-0.52,0.5-1.26-0.46-1.9-1.06c-0.64-0.6-2.73-1.1-3.77,1.72
												c-1.06,2.87,0.92,5.76,2.57,5.91c2.84,0.27,3.26-1.95,3.26-1.95l0.1,12.11c4.76,5.05,13.1-0.9,9.35-3.14l-0.01-3.59
												c0,0,2.57-0.24,3.82-0.8c2.09-0.93,3.4-3.18,4.03-5.96c1.02-4.46,1.4-7.94,0.54-15.95c-0.94-8.77-10.04-6.43-14.95-1.55
												C169.5,111.21,171.37,120.58,171.37,120.58z"/>
											<path id="XMLID_2492_" class="st8" d="M171.37,121.59c-0.26,0.08-1.25-1.56-1.9-2.07c-0.9-0.7,0.26-9.53,0.26-9.53
												c-1.04-2.27,0.87-5.71,2.87-7.11c1.49-1.05,3.14-1.44,4.73-1.74c1.43-0.26,2.86-0.46,4.28-0.59
												c1.72-0.16,3.44-0.22,5.19-0.62c1.39-0.32,2.81-0.86,4.11-1.76c0.42-0.29,0.84,0.03,0.7,0.56
												c-0.11,0.43-0.27,0.91-0.49,1.35c-0.44,0.9-0.77,1.64-1.38,2.43c-0.62,0.8-1.3,1.54-2.01,2.22
												c-3.84,3.64-8.69,4.63-12.96,5.1c-0.96,0.11-1.17,1.24-1.69,4.32C172.62,116.85,172.25,121.33,171.37,121.59z"/>
											<path id="XMLID_2491_" class="st8" d="M169.73,110.65l-3.14-1.1c0.45-1.16,1.51-1.85,2.38-1.54
												C169.84,108.3,170.18,109.49,169.73,110.65z"/>
											<path id="XMLID_2490_" class="st27" d="M180.96,130.58c0,0-4.66,0.16-6.28-0.4c-1.09-0.38-1.99-1.3-2.25-1.97
												c0,0,0.31,1.51,1.28,2.69c1.19,1.44,7.26,1.11,7.26,1.11L180.96,130.58z"/>
										</g>
										<g id="XMLID_2468_">
											<path id="XMLID_2488_" class="st8" d="M179.84,116.96c0,0.62-0.42,1.23-0.93,1.37c-0.52,0.14-0.93-0.25-0.93-0.87
												c0-0.62,0.42-1.23,0.93-1.37C179.42,115.96,179.84,116.35,179.84,116.96z"/>
											<path id="XMLID_2487_" class="st8" d="M178.34,112.9l-2,1.81c-0.29-0.58-0.09-1.46,0.47-1.96
												C177.36,112.25,178.05,112.32,178.34,112.9z"/>
											<path id="XMLID_2479_" class="st27" d="M180.54,124.22l2.13,0.35c-0.21,0.76-0.86,1.3-1.45,1.2
												C180.63,125.68,180.33,124.98,180.54,124.22z"/>
											<path id="XMLID_2474_" class="st8" d="M188.4,111.16l-1.82-1.13c0.37-0.7,1.08-1.02,1.58-0.7
												C188.66,109.64,188.77,110.46,188.4,111.16z"/>
											<path id="XMLID_2473_" class="st8" d="M187.6,114.58c0,0.62-0.42,1.23-0.93,1.37c-0.52,0.14-0.93-0.25-0.93-0.87
												c0-0.62,0.42-1.23,0.93-1.37C187.18,113.57,187.6,113.96,187.6,114.58z"/>
											<polygon id="XMLID_2472_" class="st27" points="182.99,114.95 183.1,121.45 186.44,119.71 											"/>
										</g>
									</g>
								</g>
							</g>
						</g>
					</g>
					<g id="XMLID_2454_">
						<path id="XMLID_2455_" class="st26" d="M153.65,180.33c1.96-26.89,5.94-36.53,12.49-39.36c2.26,1.68,2.81,9.59,0.44,15.59
							c0,0-5.09,17.93-5.38,24.02c-0.25,5.35,0.38,12.74,1.04,16.95c0.12,0.75,0.49,1.33,1.03,1.68c1.43,0.93,1.34,2.29,2.37,3.57
							c0.8,1,1.55,1.18,1.4,1.55c-0.2,0.48-0.92,1.32-2,1.07c-0.54-0.13-0.92-0.39-1.76-0.95c0,0,0.47,1.9,1.85,4
							c1.86,2.85,1.78,4.76-2.6,5.41c-2.74,0.41-4.73-1.3-6.11-8.16c-0.4-1.98-1.33-5.54-1.72-8.1
							C153.59,190.25,153.33,184.66,153.65,180.33z"/>
					</g>
					<path id="XMLID_2453_" class="st2" d="M168,139.65c0,0-4.77,1.67-7.18,5.58c-2.41,3.91-4.71,10.2-6.32,21.36
						c0,0,3.02,4.13,10.89,0.7c0,0,3.43-14.24,3.73-19.87C169.46,141.27,168,139.65,168,139.65z"/>
					<path id="XMLID_1246_" class="st3" d="M168,139.65c0,0-4.77,1.67-7.18,5.58c-2.41,3.91-4.71,10.2-6.32,21.36
						c0,0,3.02,4.13,10.89,0.7c0,0,3.43-14.24,3.73-19.87C169.46,141.27,168,139.65,168,139.65z"/>
				</g>
			</g>
		</g>
		<g id="XMLID_1655_">
			<g id="XMLID_1663_">
				<path id="XMLID_1670_" class="st1" d="M202.61,154.89l-0.06-2.92l-3.48-1.98l0,0l0,0v0c-0.28-0.16-0.68-0.14-1.11,0.11
					l-48.48,27.99c-0.87,0.5-1.57,1.72-1.57,2.72l0,14.44c0,0.49,0.17,0.84,0.44,1.01v0l0.01,0.01c0,0,0,0,0,0l3.48,1.99l0.01-3.47
					l46.1-26.57c0.87-0.5,1.57-1.72,1.57-2.72v-10.6H202.61z"/>
				<path id="XMLID_1669_" class="st10" d="M202.55,151.96l-3.48-1.98l0,0l0,0v0c-0.28-0.16-0.68-0.14-1.11,0.11l-48.48,27.99
					c-0.38,0.22-0.72,0.58-0.99,0.99l4.93,2.85l46.12-26.05L202.55,151.96z"/>
				<path id="XMLID_1664_" class="st11" d="M152.95,180.06l48.48-27.99c0.87-0.5,1.57-0.09,1.57,0.91v14.49c0,1-0.7,2.22-1.57,2.72
					l-48.48,27.94c-0.87,0.5-1.57,0.09-1.57-0.91l0-14.44C151.38,181.78,152.09,180.57,152.95,180.06z"/>
			</g>
			<g id="stars_3_">
				<path id="XMLID_1662_" class="st2" d="M157.57,181.41l0.88,1.87c0.06,0.12,0.16,0.16,0.29,0.11l1.97-0.76
					c0.31-0.12,0.44,0.32,0.21,0.75l-1.43,2.68c-0.09,0.17-0.13,0.36-0.11,0.51l0.34,2.42c0.05,0.39-0.27,0.89-0.55,0.86l-1.76-0.22
					c-0.11-0.01-0.24,0.06-0.36,0.21l-1.76,2.26c-0.28,0.36-0.61,0.23-0.55-0.22l0.34-2.81c0.02-0.18-0.02-0.32-0.11-0.39
					l-1.43-1.03c-0.23-0.16-0.1-0.75,0.21-0.99l1.97-1.52c0.12-0.1,0.23-0.26,0.29-0.44l0.88-2.89
					C157.02,181.35,157.43,181.12,157.57,181.41z"/>
				<path id="XMLID_1661_" class="st2" d="M167.55,175.7l0.88,1.87c0.06,0.12,0.16,0.16,0.29,0.11l1.97-0.76
					c0.31-0.12,0.44,0.32,0.21,0.75l-1.43,2.68c-0.09,0.17-0.13,0.36-0.11,0.51l0.34,2.42c0.05,0.39-0.27,0.89-0.55,0.86l-1.76-0.22
					c-0.11-0.01-0.24,0.06-0.36,0.21l-1.76,2.26c-0.28,0.36-0.61,0.23-0.55-0.22l0.34-2.81c0.02-0.18-0.02-0.32-0.11-0.39
					l-1.43-1.03c-0.23-0.16-0.1-0.75,0.21-0.99l1.97-1.52c0.12-0.1,0.23-0.26,0.29-0.44l0.88-2.89
					C167.01,175.63,167.41,175.4,167.55,175.7z"/>
				<path id="XMLID_1660_" class="st2" d="M177.54,169.98l0.88,1.87c0.06,0.12,0.16,0.16,0.29,0.11l1.97-0.76
					c0.31-0.12,0.44,0.32,0.21,0.75l-1.43,2.68c-0.09,0.17-0.13,0.36-0.11,0.51l0.34,2.42c0.05,0.39-0.27,0.89-0.55,0.86l-1.76-0.22
					c-0.11-0.01-0.24,0.06-0.36,0.21l-1.76,2.26c-0.28,0.36-0.61,0.23-0.55-0.22l0.34-2.81c0.02-0.18-0.02-0.32-0.11-0.39
					l-1.43-1.03c-0.23-0.16-0.1-0.75,0.21-0.99l1.97-1.52c0.12-0.1,0.23-0.26,0.29-0.44l0.88-2.89
					C176.99,169.92,177.4,169.68,177.54,169.98z"/>
				<path id="XMLID_1658_" class="st1" d="M187.52,164.26l0.88,1.87c0.06,0.12,0.16,0.16,0.29,0.11l1.97-0.76
					c0.31-0.12,0.44,0.32,0.21,0.75l-1.43,2.68c-0.09,0.17-0.13,0.36-0.11,0.51l0.34,2.42c0.05,0.39-0.27,0.89-0.55,0.86l-1.76-0.22
					c-0.11-0.01-0.24,0.06-0.36,0.21l-1.76,2.26c-0.28,0.36-0.61,0.23-0.55-0.22l0.34-2.81c0.02-0.18-0.02-0.32-0.11-0.39
					l-1.43-1.03c-0.23-0.16-0.1-0.75,0.21-0.99l1.97-1.52c0.12-0.1,0.23-0.26,0.29-0.44l0.88-2.89
					C186.98,164.2,187.38,163.97,187.52,164.26z"/>
				<path id="XMLID_1656_" class="st1" d="M197.51,158.55l0.88,1.87c0.06,0.12,0.16,0.16,0.29,0.11l1.97-0.76
					c0.31-0.12,0.44,0.32,0.21,0.75l-1.43,2.68c-0.09,0.17-0.13,0.36-0.11,0.51l0.34,2.42c0.05,0.39-0.27,0.89-0.55,0.86l-1.76-0.22
					c-0.11-0.01-0.24,0.06-0.36,0.21l-1.76,2.26c-0.28,0.36-0.61,0.23-0.55-0.22l0.34-2.81c0.02-0.18-0.02-0.32-0.11-0.39
					l-1.43-1.03c-0.23-0.16-0.1-0.75,0.21-0.99l1.97-1.52c0.12-0.1,0.23-0.26,0.29-0.44l0.88-2.89
					C196.96,158.48,197.37,158.25,197.51,158.55z"/>
			</g>
		</g>
	</g>
	<g id="XMLID_990_">
		<g id="XMLID_1643_">
			<g id="XMLID_989_">
				<path id="XMLID_1242_" class="st1" d="M136.87,224.82l-0.06-2.93l-3.48-1.98l0,0l0,0v0c-0.28-0.16-0.68-0.14-1.11,0.11
					l-48.48,27.99c-0.87,0.5-1.57,1.72-1.57,2.72l0,61.66c0,0.49,0.17,0.84,0.44,1.01v0l0.01,0.01c0,0,0,0,0,0l3.48,1.99l0.01-3.47
					l46.1-26.57c0.87-0.5,1.57-1.72,1.57-2.72v-57.82H136.87z"/>
				<path id="XMLID_1241_" class="st10" d="M136.81,221.9l-3.48-1.98l0,0l0,0v0c-0.28-0.16-0.68-0.14-1.11,0.11l-48.48,27.99
					c-0.38,0.22-0.72,0.58-0.99,0.99l4.93,2.85l46.12-26.05L136.81,221.9z"/>
				<path id="XMLID_1239_" class="st11" d="M87.21,250l48.48-27.99c0.87-0.5,1.57-0.09,1.57,0.91v61.71c0,1-0.7,2.22-1.57,2.72
					l-48.48,27.94c-0.87,0.5-1.57,0.09-1.57-0.91l0-61.66C85.64,251.72,86.34,250.5,87.21,250z"/>
			</g>
			<g id="XMLID_1814_">
				<defs>
					<path id="XMLID_1815_" d="M87.21,250l48.48-27.99c0.87-0.5,1.57-0.09,1.57,0.91v61.71c0,1-0.7,2.22-1.57,2.72l-48.48,27.94
						c-0.87,0.5-1.57,0.09-1.57-0.91l0-61.66C85.64,251.72,86.34,250.5,87.21,250z"/>
				</defs>
				<clipPath id="XMLID_8_">
					<use xlink:href="#XMLID_1815_"  style="overflow:visible;"/>
				</clipPath>
				<g id="XMLID_1816_" class="st28">
					<path id="XMLID_1853_" class="st13" d="M121.09,276.07c0,0,3.81-1.18,6.98,3.83c2.16,3.4,9.7,16.33,9.7,16.33
						s14.67-7.78,15.49-8.79c0.83-1.02,0.78-3.08,0.9-4.19c0.21-1.86-0.47-3.45-0.57-4.12c-0.17-1.17,1.51-1.23,2.34,0.39
						c0.61,1.18,0.65,2.53,1.18,2.55c0.18,0.01,1.82-1.49,2.06-1.76c0.91-0.99,2.55-2.66,3.8-2.43c0.41,0.08,0.73,0.42,0.83,0.89
						c0.15,0.74,0.09,1.36,0.47,1.98c0.16,0.26,0.4,0.47,0.49,0.8c0.12,0.43-0.05,0.84-0.01,1.29c0.05,0.61,0.65,0.87,0.73,1.47
						c0.06,0.43-0.16,0.94-0.15,1.39c0,0.29,0.1,0.55,0.09,0.85c0,0.58-0.37,1.16-0.76,1.63c-1.36,1.65-2.75,2.6-4.35,3.65
						c-1.34,0.87-3.1,1.65-4.61,2.47c-1.51,0.82-18.8,14.09-21.1,12.52c-2.3-1.57-13.84-18.38-13.84-18.38
						C118.1,281.02,121.09,276.07,121.09,276.07z"/>
					<g id="XMLID_1851_">
						<path id="XMLID_1852_" class="st7" d="M114.4,276.19c0,0,4.2-1.7,6.92-1.53c2.72,0.17,4.74,0.95,6.74,4.16
							c2.67,4.29,7.08,11.7,7.08,11.7s-2.54,5.86-8.58,9.18l-8.13-12.27L114.4,276.19z"/>
					</g>
					<path id="XMLID_1849_" class="st2" d="M101.07,283.61c-1.36,1.06-2.43,2.63-2.97,4.37c-0.48,1.55-0.9,3.68-0.9,6.4v13.95
						l-0.18,26.39c8.85,3.02,20.1,0.36,29.55-10.13c0,0-0.53-33.77-0.53-39.31c0-0.25-0.01-0.5-0.02-0.76
						c-0.34-7.83-7.1-11.46-13.75-7.7l-5.59,3.16L101.07,283.61L101.07,283.61z"/>
					<path id="XMLID_1771_" class="st29" d="M101.07,283.61c-1.36,1.06-2.43,2.63-2.97,4.37c-0.48,1.55-0.9,3.68-0.9,6.4v13.95
						l-0.18,26.39c8.85,3.02,20.1,0.36,29.55-10.13c0,0-0.53-33.77-0.53-39.31c0-0.25-0.01-0.5-0.02-0.76
						c-0.34-7.83-7.1-11.46-13.75-7.7l-5.59,3.16L101.07,283.61L101.07,283.61z"/>
					<g id="XMLID_1832_">
						<g id="XMLID_1841_">
							<path id="XMLID_1848_" class="st8" d="M107.13,254.9c0,5.95,4.18,9.66,9.33,8.27c5.15-1.38,9.33-7.32,9.33-13.27
								c0-5.95-4.45-5.95-9.6-4.57C111.03,246.71,107.13,248.95,107.13,254.9z"/>
							<path id="XMLID_1847_" class="st8" d="M102.26,264.32c0,0,1.37,7.09,1.93,8.17c0.55,1.08,1.69,1.12,1.69,1.12l-0.1-5.22
								L102.26,264.32z"/>
							<path id="XMLID_1846_" class="st8" d="M103.98,253.17c0,0-1.48,0.1-2.63,1.78c-1.13,1.64-0.5,5.65,0.91,9.37l2.59-0.35
								L103.98,253.17z"/>
							<path id="XMLID_1845_" class="st26" d="M105.62,263.76c-0.52,0.5-1.26-0.46-1.9-1.06c-0.64-0.6-2.73-1.1-3.77,1.72
								c-1.06,2.87,0.92,5.76,2.57,5.91c2.84,0.27,3.26-1.95,3.26-1.95l0.1,12.11c4.76,5.05,13.1-0.9,9.35-3.14l-0.01-3.59
								c0,0,2.57-0.24,3.82-0.8c2.09-0.93,3.4-3.18,4.03-5.96c1.02-4.46,1.4-7.94,0.54-15.95c-0.94-8.77-10.04-6.43-14.95-1.55
								C103.75,254.39,105.62,263.76,105.62,263.76z"/>
							<path id="XMLID_1844_" class="st8" d="M105.62,264.77c-0.26,0.08-1.25-1.56-1.9-2.07c-0.34-0.26-0.3-1.02-0.32-1.39
								c-0.1-1.86,0.11-3.75,0.29-5.6c0.12-1.17,0.31-2.23,0.1-3.39c-0.23-1.21-0.2-2.48,0.15-3.67c0.42-1.45,1.31-2.77,2.56-3.62
								c1.56-1.06,3.65-1.27,5.45-0.77c0.01-0.88,0.56-1.71,1.31-2.18c0.75-0.47,1.67-0.61,2.55-0.54c0.93,0.08,1.95,0.51,2.22,1.4
								c0.56-1.38,1.87-2.43,3.34-2.67c1.25-0.2,2.83,0.19,3.71,1.16c0.82,0.91,0.97,2.62,0.94,3.78c-0.01,0.55-0.07,1.1-0.22,1.62
								c-0.34,1.17-1.16,2.18-2.21,2.79s-2.32,0.82-3.52,0.65c0.26,0.04-0.49,1.9-0.59,2.06c-0.39,0.66-1.01,1.2-1.74,1.46
								c-1.39,0.5-3.04,0.03-4.04-1.06c-0.14,0.88-1.1,1.41-1.99,1.47c-0.89,0.06-1.76-0.22-2.65-0.3
								c-1.69-0.16-1.52,2.23-1.72,3.41C106.88,260.03,106.5,264.52,105.62,264.77z"/>
							<path id="XMLID_1843_" class="st8" d="M103.99,253.83l-3.14-1.1c0.45-1.16,1.51-1.85,2.38-1.54
								C104.09,251.49,104.43,252.68,103.99,253.83z"/>
							<path id="XMLID_1842_" class="st27" d="M115.21,273.76c0,0-4.66,0.16-6.28-0.4c-1.09-0.38-1.99-1.3-2.25-1.97
								c0,0,0.31,1.51,1.28,2.69c1.19,1.44,7.26,1.11,7.26,1.11V273.76z"/>
						</g>
						<g id="XMLID_1833_">
							<path id="XMLID_1840_" class="st8" d="M114.1,260.58c0,0.62-0.42,1.23-0.93,1.37c-0.52,0.14-0.93-0.25-0.93-0.87
								c0-0.62,0.42-1.23,0.93-1.37C113.68,259.57,114.1,259.96,114.1,260.58z"/>
							<path id="XMLID_1839_" class="st8" d="M112.6,256.52l-2,1.81c-0.29-0.58-0.09-1.46,0.47-1.96
								C111.62,255.87,112.3,255.94,112.6,256.52z"/>
							<path id="XMLID_1838_" class="st27" d="M114.79,267.4l2.13,0.35c-0.21,0.76-0.86,1.3-1.45,1.2
								C114.89,268.86,114.58,268.17,114.79,267.4z"/>
							<path id="XMLID_1837_" class="st8" d="M122.65,254.77l-1.82-1.13c0.37-0.7,1.08-1.02,1.58-0.7
								C122.92,253.25,123.03,254.07,122.65,254.77z"/>
							<path id="XMLID_1836_" class="st8" d="M122.26,258.08c0,0.62-0.42,1.23-0.93,1.37c-0.52,0.14-0.93-0.25-0.93-0.87
								c0-0.62,0.42-1.23,0.93-1.37C121.84,257.07,122.26,257.46,122.26,258.08z"/>
							<polygon id="XMLID_1834_" class="st27" points="117.24,258.13 117.35,264.64 120.7,262.89 							"/>
						</g>
					</g>
					<g id="XMLID_1818_">
						<path id="XMLID_1819_" class="st26" d="M87.91,323.51c1.96-26.89,5.94-36.53,12.49-39.36c2.26,1.68,2.81,9.59,0.44,15.59
							c0,0-5.09,17.93-5.38,24.02c-0.25,5.35,0.38,12.74,1.04,16.95c0.12,0.75,0.49,1.33,1.03,1.68c1.43,0.93,1.34,2.29,2.37,3.57
							c0.8,1,1.55,1.18,1.4,1.55c-0.2,0.48-0.92,1.32-2,1.07c-0.54-0.13-0.92-0.39-1.76-0.95c0,0,0.47,1.9,1.85,4
							c1.86,2.85,1.78,4.76-2.6,5.41c-2.74,0.41-4.73-1.3-6.11-8.16c-0.4-1.98-1.33-5.54-1.72-8.1
							C87.84,333.43,87.59,327.84,87.91,323.51z"/>
					</g>
					<path id="XMLID_1817_" class="st7" d="M102.26,282.84c0,0-4.77,1.67-7.18,5.58c-2.41,3.91-4.71,10.2-6.32,21.36
						c0,0,3.02,4.13,10.89,0.7c0,0,3.43-14.24,3.73-19.87C103.72,284.46,102.26,282.84,102.26,282.84z"/>
					<g id="XMLID_551_">
						<g id="XMLID_613_">
							<path id="XMLID_643_" class="st8" d="M110.03,261.51c0.06-1.62,1.45-3.24,3.06-3.76l0.15-0.05c1.61-0.51,3.12,0.18,3.34,1.71
								c0.26,1.73-1.09,3.69-2.87,4.26l-0.47,0.15C111.47,264.39,109.96,263.35,110.03,261.51z M112.95,258.31
								c-1.57,0.5-2.73,2.3-2.33,3.8c0.3,1.11,1.46,1.56,2.69,1.17l0.28-0.09c1.22-0.39,2.3-1.57,2.48-2.83
								c0.23-1.7-1.08-2.71-2.65-2.21L112.95,258.31z"/>
						</g>
						<g id="XMLID_556_">
							<path id="XMLID_557_" class="st8" d="M118.8,258.69c0.06-1.62,1.45-3.24,3.06-3.76l0.15-0.05c1.61-0.51,3.12,0.18,3.34,1.71
								c0.26,1.73-1.09,3.69-2.87,4.26l-0.47,0.15C120.24,261.57,118.73,260.52,118.8,258.69z M121.72,255.49
								c-1.57,0.5-2.73,2.3-2.33,3.8c0.3,1.11,1.46,1.56,2.69,1.17l0.28-0.09c1.22-0.39,2.3-1.57,2.48-2.83
								c0.23-1.7-1.08-2.71-2.65-2.21L121.72,255.49z"/>
						</g>
						<g id="XMLID_554_">
							<path id="XMLID_555_" class="st8" d="M116.26,258.86c0.31-0.39,0.79-0.73,1.31-0.92c0.6-0.22,1.14-0.2,1.43,0.07l0.39-0.44
								c-0.41-0.38-1.1-0.43-1.88-0.13c-0.64,0.24-1.21,0.65-1.6,1.13C115.77,258.75,116.15,258.99,116.26,258.86z"/>
						</g>
						<g id="XMLID_552_">
							<path id="XMLID_553_" class="st8" d="M104.44,263.47l5.87-1.88l-0.03-0.51l-6.17,1.97
								C104.23,263.18,104.35,263.32,104.44,263.47z"/>
						</g>
					</g>
				</g>
			</g>
		</g>
		<g id="XMLID_1423_">
			<g id="XMLID_1496_">
				<path id="XMLID_1611_" class="st1" d="M136.87,298.57l-0.06-2.92l-3.48-1.98l0,0l0,0v0c-0.28-0.16-0.68-0.14-1.11,0.11
					l-48.48,27.99c-0.87,0.5-1.57,1.72-1.57,2.72l0,14.44c0,0.49,0.17,0.84,0.44,1.01v0l0.01,0.01c0,0,0,0,0,0l3.48,1.99l0.01-3.47
					l46.1-26.57c0.87-0.5,1.57-1.72,1.57-2.72v-10.6H136.87z"/>
				<path id="XMLID_1574_" class="st10" d="M136.81,295.65l-3.48-1.98l0,0l0,0v0c-0.28-0.16-0.68-0.14-1.11,0.11l-48.48,27.99
					c-0.38,0.22-0.72,0.58-0.99,0.99l4.93,2.85l46.12-26.05L136.81,295.65z"/>
				<path id="XMLID_1573_" class="st11" d="M87.21,323.75l48.48-27.99c0.87-0.5,1.57-0.09,1.57,0.91v14.49c0,1-0.7,2.22-1.57,2.72
					l-48.48,27.94c-0.87,0.5-1.57,0.09-1.57-0.91l0-14.44C85.64,325.47,86.34,324.25,87.21,323.75z"/>
			</g>
			<g id="stars_1_">
				<path id="XMLID_1495_" class="st2" d="M91.83,325.1l0.88,1.87c0.06,0.12,0.16,0.16,0.29,0.11l1.97-0.76
					c0.31-0.12,0.44,0.32,0.21,0.75l-1.43,2.68c-0.09,0.17-0.13,0.36-0.11,0.51l0.34,2.42c0.05,0.39-0.27,0.89-0.55,0.86l-1.76-0.22
					c-0.11-0.01-0.24,0.06-0.36,0.21l-1.76,2.26c-0.28,0.36-0.61,0.23-0.55-0.22l0.34-2.81c0.02-0.18-0.02-0.32-0.11-0.39
					l-1.43-1.03c-0.23-0.16-0.1-0.75,0.21-0.99l1.97-1.52c0.12-0.1,0.23-0.26,0.29-0.44l0.88-2.89
					C91.28,325.03,91.69,324.8,91.83,325.1z"/>
				<path id="XMLID_1427_" class="st2" d="M101.81,319.38l0.88,1.87c0.06,0.12,0.16,0.16,0.29,0.11l1.97-0.76
					c0.31-0.12,0.44,0.32,0.21,0.75l-1.43,2.68c-0.09,0.17-0.13,0.36-0.11,0.51l0.34,2.42c0.05,0.39-0.27,0.89-0.55,0.86l-1.76-0.22
					c-0.11-0.01-0.24,0.06-0.36,0.21l-1.76,2.26c-0.28,0.36-0.61,0.23-0.55-0.22l0.34-2.81c0.02-0.18-0.02-0.32-0.11-0.39
					l-1.43-1.03c-0.23-0.16-0.1-0.75,0.21-0.99l1.97-1.52c0.12-0.1,0.23-0.26,0.29-0.44l0.88-2.89
					C101.27,319.32,101.67,319.08,101.81,319.38z"/>
				<path id="XMLID_1426_" class="st2" d="M111.79,313.66l0.88,1.87c0.06,0.12,0.16,0.16,0.29,0.11l1.97-0.76
					c0.31-0.12,0.44,0.32,0.21,0.75l-1.43,2.68c-0.09,0.17-0.13,0.36-0.11,0.51l0.34,2.42c0.05,0.39-0.27,0.89-0.55,0.86l-1.76-0.22
					c-0.11-0.01-0.24,0.06-0.36,0.21l-1.76,2.26c-0.28,0.36-0.61,0.23-0.55-0.22l0.34-2.81c0.02-0.18-0.02-0.32-0.11-0.39
					l-1.43-1.03c-0.23-0.16-0.1-0.75,0.21-0.99l1.97-1.52c0.12-0.1,0.23-0.26,0.29-0.44l0.88-2.89
					C111.25,313.6,111.65,313.37,111.79,313.66z"/>
				<path id="XMLID_1425_" class="st2" d="M121.78,307.95l0.88,1.87c0.06,0.12,0.16,0.16,0.29,0.11l1.97-0.76
					c0.31-0.12,0.44,0.32,0.21,0.75l-1.43,2.68c-0.09,0.17-0.13,0.36-0.11,0.51l0.34,2.42c0.05,0.39-0.27,0.89-0.55,0.86l-1.76-0.22
					c-0.11-0.01-0.24,0.06-0.36,0.21l-1.76,2.26c-0.28,0.36-0.61,0.23-0.55-0.22l0.34-2.81c0.02-0.18-0.02-0.32-0.11-0.39
					l-1.43-1.03c-0.23-0.16-0.1-0.75,0.21-0.99l1.97-1.52c0.12-0.1,0.23-0.26,0.29-0.44l0.88-2.89
					C121.23,307.88,121.64,307.65,121.78,307.95z"/>
				<path id="XMLID_1424_" class="st1" d="M131.76,302.23l0.88,1.87c0.06,0.12,0.16,0.16,0.29,0.11l1.97-0.76
					c0.31-0.12,0.44,0.32,0.21,0.75l-1.43,2.68c-0.09,0.17-0.13,0.36-0.11,0.51l0.34,2.42c0.05,0.39-0.27,0.89-0.55,0.86l-1.76-0.22
					c-0.11-0.01-0.24,0.06-0.36,0.21l-1.76,2.26c-0.28,0.36-0.61,0.23-0.55-0.22l0.34-2.81c0.02-0.18-0.02-0.32-0.11-0.39
					l-1.43-1.03c-0.23-0.16-0.1-0.75,0.21-0.99l1.97-1.52c0.12-0.1,0.23-0.26,0.29-0.44l0.88-2.89
					C131.22,302.17,131.62,301.93,131.76,302.23z"/>
			</g>
		</g>
	</g>
	<g id="XMLID_987_">
		<g id="XMLID_1652_">
			<g id="XMLID_1344_">
				<path id="XMLID_1376_" class="st1" d="M136.87,119.6l-0.06-2.92l-3.48-1.98l0,0l0,0v0c-0.28-0.16-0.68-0.14-1.11,0.11
					L83.74,142.8c-0.87,0.5-1.57,1.72-1.57,2.72l0,61.66c0,0.49,0.17,0.84,0.44,1.01v0l0.01,0.01c0,0,0,0,0,0l3.48,1.99l0.01-3.47
					l46.1-26.57c0.87-0.5,1.57-1.72,1.57-2.72V119.6H136.87z"/>
				<path id="XMLID_1386_" class="st10" d="M136.81,116.68l-3.48-1.98l0,0l0,0v0c-0.28-0.16-0.68-0.14-1.11,0.11L83.74,142.8
					c-0.38,0.22-0.72,0.58-0.99,0.99l4.93,2.85l46.12-26.05L136.81,116.68z"/>
				<path id="XMLID_2272_" class="st11" d="M87.21,144.78l48.48-27.99c0.87-0.5,1.57-0.09,1.57,0.91v61.71c0,1-0.7,2.22-1.57,2.72
					l-48.48,27.94c-0.87,0.5-1.57,0.09-1.57-0.91l0-61.66C85.64,146.5,86.34,145.28,87.21,144.78z"/>
			</g>
			<g id="XMLID_2007_">
				<defs>
					<path id="XMLID_2008_" d="M87.21,144.78l48.48-27.99c0.87-0.5,1.57-0.09,1.57,0.91v61.71c0,1-0.7,2.22-1.57,2.72l-48.48,27.94
						c-0.87,0.5-1.57,0.09-1.57-0.91l0-61.66C85.64,146.5,86.34,145.28,87.21,144.78z"/>
				</defs>
				<clipPath id="XMLID_9_">
					<use xlink:href="#XMLID_2008_"  style="overflow:visible;"/>
				</clipPath>
				<g id="XMLID_2012_" class="st30">
					<g id="XMLID_2017_">
						<g id="XMLID_2174_">
							<path id="XMLID_2177_" class="st8" d="M127.24,181.33l-26.36,7.3c0,0,0.03-20.03,0-27.04l0,0
								c-0.03-8.4,5.84-16.81,13.12-18.8l0,0c7.28-1.99,13.21,3.21,13.24,11.61l0,0C127.27,161.41,127.24,181.33,127.24,181.33z"/>
							<path id="XMLID_2175_" class="st8" d="M103.12,152.52l-3.41-2.44c0.65-0.68,1.95-0.68,2.89-0.01
								C103.54,150.74,103.77,151.84,103.12,152.52z"/>
							<path id="XMLID_513_" class="st8" d="M103.37,151.87l-1.34-3.97c0.93-0.17,1.98,0.58,2.35,1.68
								C104.75,150.68,104.29,151.7,103.37,151.87z"/>
						</g>
						<path id="XMLID_2270_" class="st31" d="M124.81,208.41c-5.44-23.86-11.67-28.07-5.85-33.04c5.98-2.28,9.06,0.98,10.1,7.97
							c0.51,3.42,1.62,17.73,3.01,23.07c1.22,4.7,2.86,10.52,4.69,13.88c0.32,0.6,0.87,0.96,1.5,1.05c1.7,0.24,2.2,1.2,3.59,1.91
							c1.08,0.55,1.89,0.41,1.83,0.79c-0.07,0.49-0.56,1.49-1.71,1.69c-0.58,0.1-1.03,0.02-2.03-0.13c0,0,1,1.45,2.96,2.72
							c2.66,1.72,3.1,3.4-1.12,5.66c-2.65,1.41-5.12,0.72-8.41-4.64c-0.95-1.55-2.43-3.99-3.31-6.22
							C127.77,217.29,125.68,212.25,124.81,208.41z"/>
						<g id="XMLID_1657_">
							<path id="XMLID_2178_" class="st2" d="M109.26,178.25L109.26,178.25c-5.91,2.05-6.33,5.46-7.81,9.47
								c-1.13,3.05-1.14,6.23-0.28,8.88l4.12,12.66c0,0-2.68,5.92-4.17,11.59c10.34,3.89,23.25-3.07,26.36-8.77
								c0.13-1.07-0.67-8.92-1.16-14.05c1.82-5.76,2.3-9.24,1.53-12.52c-1.43-6.09-6.96-10.91-9.41-10.03L109.26,178.25z"/>
							<path id="XMLID_2018_" class="st9" d="M111.91,219.24c-3.4-0.02-5.55-3.41-4.65-7.54c0.03-0.16,0.07-0.29,0.11-0.4
								c0.66-2.02,2.09-2.16,2.09-2.16l0,0c-1.34-0.67-1.97-2.25-2.29-3.99l-1.56-8.05c0,0-0.28-1.83,0.32-4.27l-4.16-4.44
								c0,0-0.3,0.32-0.77,0.82c-0.65,2.58-0.55,5.18,0.17,7.39l4.12,12.66c0,0-2.54,5.44-4.17,11.59
								c7.62,2.87,16.63-0.16,22.1-4.23C118.91,218.54,114.91,219.26,111.91,219.24z"/>
						</g>
					</g>
					<g id="XMLID_2029_">
						<g id="XMLID_2172_">
							<path id="XMLID_2173_" class="st31" d="M122.29,147.39c1.4,0.57,3.13,4.14,2.99,12.65c-0.12,7.22-2.13,9.54-3.14,10.33
								c-1.01,0.79-2.96,1.01-4.86,1.16l0.11,4.33c0,0,3.2,2.17,3.04,4.19c-0.16,2.02-4.44,4.08-6.9,2.82
								c-2.14-1.1-3.99-2.8-4.43-3.22c-0.07-0.06-0.1-0.16-0.1-0.27l-0.01-10.88c0,0-1.11,1.56-3.01,0.16
								c-1.57-1.15-2.11-3.67-0.89-5.43c1.21-1.76,3.47-1.99,4.34-0.19c0,0,3.03-0.7,7.05-4.35
								C120.5,155.04,122.03,150.25,122.29,147.39z"/>
						</g>
						<g id="XMLID_1673_">
							<g id="XMLID_2170_">
								<path id="XMLID_2171_" class="st8" d="M118.2,160.14c0.02,0.51-0.31,1.04-0.74,1.18c-0.43,0.14-0.8-0.16-0.83-0.67
									c-0.02-0.51,0.31-1.04,0.74-1.18C117.8,159.32,118.17,159.62,118.2,160.14z"/>
							</g>
							<g id="XMLID_2168_">
								<path id="XMLID_2169_" class="st32" d="M118.43,166.16l1.82,0.17c-0.15,0.64-0.68,1.12-1.18,1.07
									C118.56,167.36,118.28,166.8,118.43,166.16z"/>
							</g>
							<g id="XMLID_2166_">
								<path id="XMLID_2167_" class="st8" d="M124.6,155.61l-1.59-0.83c0.29-0.6,0.88-0.9,1.31-0.67
									C124.76,154.34,124.89,155.01,124.6,155.61z"/>
							</g>
							<g id="XMLID_2042_">
								<path id="XMLID_2165_" class="st8" d="M124.24,157.83c0.02,0.51-0.31,1.04-0.74,1.18c-0.43,0.14-0.8-0.16-0.83-0.67
									c-0.02-0.51,0.31-1.04,0.74-1.18C123.85,157.02,124.22,157.32,124.24,157.83z"/>
							</g>
							<g id="XMLID_2034_">
								<polygon id="XMLID_2040_" class="st32" points="120.72,157.83 120.69,163.72 123.17,162.16 								"/>
							</g>
							<g id="XMLID_2030_">
								<path id="XMLID_2032_" class="st32" d="M117.15,171.53c-2,0.24-6.12,0-6.77-1.7c0,0,0.22,1.12,1.45,2
									c1.23,0.88,5.36,1.14,5.36,1.14L117.15,171.53z"/>
							</g>
						</g>
					</g>
					<g id="XMLID_2013_">
						<g id="XMLID_2014_">
							<path id="XMLID_2015_" class="st31" d="M90.67,217.53c4.6-22.93,7.5-32.82,12.54-36.31c1.48-1.03,3.41-1.69,3.41-1.69
								c0.69,0.26,0.76,1.78,0.9,2.75c0.48,3.44-0.39,8.96-2.62,13.13c0,0-6.71,18.14-7.78,24.24c-0.94,5.34-2,12.01-1.94,16.38
								c0.01,0.79,0.28,1.48,0.74,1.93c1.23,1.21,1.23,2.44,2.03,3.93c0.62,1.16,1.3,1.48,1.11,1.83c-0.25,0.45-1.04,1.16-2.01,0.71
								c-0.49-0.23-0.81-0.56-1.53-1.28c0,0,0.19,2,1.21,4.38c1.38,3.22,1.04,5.14-3.15,4.98c-2.63-0.1-4.28-2.18-4.67-9.36
								c-0.11-2.07-0.28-5.34-0.07-8.05C89.4,228.02,89.81,221.84,90.67,217.53z"/>
						</g>
					</g>
				</g>
			</g>
		</g>
		<g id="XMLID_797_">
			<g id="XMLID_1403_">
				<path id="XMLID_1422_" class="st1" d="M136.87,192.88l-0.06-2.92l-3.48-1.98l0,0l0,0v0c-0.28-0.16-0.68-0.14-1.11,0.11
					l-48.48,27.99c-0.87,0.5-1.57,1.72-1.57,2.72l0,14.44c0,0.49,0.17,0.84,0.44,1v0l0.01,0.01c0,0,0,0,0,0l3.48,1.99l0.01-3.47
					l46.1-26.57c0.87-0.5,1.57-1.72,1.57-2.72v-10.6H136.87z"/>
				<path id="XMLID_1405_" class="st10" d="M136.81,189.95l-3.48-1.98l0,0l0,0v0c-0.28-0.16-0.68-0.14-1.11,0.11l-48.48,27.99
					c-0.38,0.22-0.72,0.58-0.99,0.99l4.93,2.85l46.12-26.05L136.81,189.95z"/>
				<path id="XMLID_1404_" class="st11" d="M87.21,218.05l48.48-27.99c0.87-0.5,1.57-0.1,1.57,0.91v14.49c0,1-0.7,2.22-1.57,2.72
					l-48.48,27.94c-0.87,0.5-1.57,0.09-1.57-0.91l0-14.44C85.64,219.77,86.34,218.55,87.21,218.05z"/>
			</g>
			<g id="stars_4_">
				<path id="XMLID_1421_" class="st2" d="M91.83,219.4l0.88,1.87c0.06,0.12,0.16,0.16,0.29,0.11l1.97-0.76
					c0.31-0.12,0.44,0.32,0.21,0.75l-1.43,2.68c-0.09,0.17-0.13,0.36-0.11,0.51l0.34,2.42c0.05,0.39-0.27,0.89-0.55,0.86l-1.76-0.22
					c-0.11-0.01-0.24,0.06-0.36,0.21l-1.76,2.26c-0.28,0.36-0.61,0.23-0.55-0.22l0.34-2.81c0.02-0.18-0.02-0.32-0.11-0.39
					l-1.43-1.03c-0.23-0.16-0.1-0.75,0.21-0.99l1.97-1.52c0.12-0.1,0.23-0.26,0.29-0.44l0.88-2.89
					C91.28,219.34,91.69,219.1,91.83,219.4z"/>
				<path id="XMLID_1420_" class="st2" d="M101.81,213.68l0.88,1.87c0.06,0.12,0.16,0.16,0.29,0.11l1.97-0.76
					c0.31-0.12,0.44,0.32,0.21,0.75l-1.43,2.68c-0.09,0.17-0.13,0.36-0.11,0.51l0.34,2.42c0.05,0.39-0.27,0.89-0.55,0.86l-1.76-0.22
					c-0.11-0.01-0.24,0.06-0.36,0.21l-1.76,2.26c-0.28,0.36-0.61,0.23-0.55-0.22l0.34-2.81c0.02-0.18-0.02-0.32-0.11-0.39
					l-1.43-1.03c-0.23-0.16-0.1-0.75,0.21-0.99l1.97-1.52c0.12-0.1,0.23-0.26,0.29-0.44l0.88-2.89
					C101.27,213.62,101.67,213.39,101.81,213.68z"/>
				<path id="XMLID_1419_" class="st2" d="M111.79,207.97l0.88,1.87c0.06,0.12,0.16,0.16,0.29,0.11l1.97-0.76
					c0.31-0.12,0.44,0.32,0.21,0.75l-1.43,2.68c-0.09,0.17-0.13,0.36-0.11,0.51l0.34,2.42c0.05,0.39-0.27,0.89-0.55,0.86l-1.76-0.22
					c-0.11-0.01-0.24,0.06-0.36,0.21l-1.76,2.26c-0.28,0.36-0.61,0.23-0.55-0.22l0.34-2.81c0.02-0.18-0.02-0.32-0.11-0.39
					l-1.43-1.03c-0.23-0.16-0.1-0.75,0.21-0.99l1.97-1.52c0.12-0.1,0.23-0.26,0.29-0.44l0.88-2.89
					C111.25,207.9,111.65,207.67,111.79,207.97z"/>
				<path id="XMLID_1418_" class="st2" d="M121.78,202.25l0.88,1.87c0.06,0.12,0.16,0.16,0.29,0.11l1.97-0.76
					c0.31-0.12,0.44,0.32,0.21,0.75l-1.43,2.68c-0.09,0.17-0.13,0.36-0.11,0.51l0.34,2.42c0.05,0.39-0.27,0.89-0.55,0.86l-1.76-0.22
					c-0.11-0.01-0.24,0.06-0.36,0.21l-1.76,2.26c-0.28,0.36-0.61,0.23-0.55-0.22l0.34-2.81c0.02-0.18-0.02-0.32-0.11-0.39
					l-1.43-1.03c-0.23-0.16-0.1-0.75,0.21-0.99l1.97-1.52c0.12-0.1,0.23-0.26,0.29-0.44l0.88-2.89
					C121.23,202.19,121.64,201.95,121.78,202.25z"/>
				<path id="XMLID_1406_" class="st2" d="M131.76,196.53l0.88,1.87c0.06,0.12,0.16,0.16,0.29,0.11l1.97-0.76
					c0.31-0.12,0.44,0.32,0.21,0.75l-1.43,2.68c-0.09,0.17-0.13,0.36-0.11,0.51l0.34,2.42c0.05,0.38-0.27,0.89-0.55,0.86l-1.76-0.22
					c-0.11-0.01-0.24,0.06-0.36,0.21l-1.76,2.26c-0.28,0.36-0.61,0.23-0.55-0.22l0.34-2.81c0.02-0.18-0.02-0.32-0.11-0.39
					l-1.43-1.03c-0.23-0.16-0.1-0.75,0.21-0.99l1.97-1.52c0.12-0.1,0.23-0.26,0.29-0.44l0.88-2.89
					C131.22,196.47,131.62,196.24,131.76,196.53z"/>
			</g>
		</g>
	</g>
</g>
<g id="Character">
	<g id="XMLID_57_">
		<g id="XMLID_98_">
			<g id="XMLID_109_">
				<path id="XMLID_110_" class="st8" d="M404.74,353.26c0.65,0.26,0.79,1.52,0.84,4.02c0.03,1.89,0.36,5.2-1.86,5.81
					c-2.23,0.61-5.46,0.2-6.84-1.61c-1.72-2.26-2.87-4.25-5.34-7.02c-2.14-2.4-4.46-4.65-5.27-7.97c-0.73-3-0.04-4.28,2.02-5.1
					c2.83-1.13,7.13,2.87,9.31,3.53C399.46,345.49,404.09,353,404.74,353.26z"/>
			</g>
			<g id="XMLID_107_">
				<path id="XMLID_108_" class="st13" d="M404.79,350.95l-0.07,3.07c0,0-3.24,2.38-7.75,0.03c-0.13-0.3-0.71-4.4-0.71-4.4
					L404.79,350.95z"/>
			</g>
			<g id="XMLID_105_">
				<path id="XMLID_106_" class="st8" d="M379.51,370.38c0,0,0.82,2.69,1.24,5.03c0.33,1.86,0.81,4.97,0.12,6.35
					c-0.68,1.38-3.23,2.22-7.16,2.1c-2.54-0.08-6.54,1.56-9.29,3.01c-2.84,1.5-8.68,1.99-11.64,1.58c-3.48-0.49-7.06-2.6-7.59-4.06
					c-0.53-1.46,0.25-2.94,8.56-6.27c0.08-0.03,11.53-3.47,15.61-7.78L379.51,370.38z"/>
			</g>
			<g id="XMLID_103_">
				<path id="XMLID_104_" class="st13" d="M379.58,367.06c0,0-0.06,2.28-0.08,3.58c-0.02,1.3-1.6,3.2-5.57,2.97
					c-2.79-0.16-4.72-0.96-4.56-3.25l0.07-3.32L379.58,367.06z"/>
			</g>
			<g id="XMLID_101_">
				<path id="XMLID_102_" class="st5" d="M407.7,310.3c-1.18-10.05-3.26-16.05-3.26-16.05s1.41-13.76,2.22-26.81
					c0.89-14.1,0.69-31.85,1.04-35.37c0,0-45.33-10.24-46.51,6.06c-1.18,16.3,0.49,57.88,0.87,65.06
					c0.38,7.18,1.47,13.54,2.69,25.19c1.2,11.5,4.69,38.66,4.69,38.66c5.14,2.93,10.14,0.02,10.14,0.02s3.94-32.55,3.79-40.82
					c-0.18-10.11-2.73-18.12-2.73-18.12s1.17-13.43,2.19-25.12c1.03-11.68,1.96-17.29,2.25-22.37l0.99-0.46
					c0,0,0.54,20.21,0.92,27.39c0.38,7.18,1.36,14.08,3.14,27.43c1.54,11.59,6.34,36.14,6.34,36.14c5.14,2.93,8.31-0.18,8.31-0.18
					S408.88,320.35,407.7,310.3z"/>
			</g>
			<g id="XMLID_99_">
				<path id="XMLID_100_" class="st8" d="M385.09,260.63c0,0,11.17-5.2,16.81-9.98c0,0-5.3,7.12-12.11,10.17
					c0,0-2.96,25.02-2.94,24.52l-0.83-24.73L385.09,260.63z"/>
			</g>
		</g>
		<g id="XMLID_68_">
			<polygon id="XMLID_97_" class="st13" points="377.34,167.63 379.7,182.52 393.12,181.84 391.56,164.42 			"/>
			<g id="XMLID_78_">
				<path id="XMLID_96_" class="st2" d="M395.9,173.35c0,0,7.35-2.6,11.34,4.07c3.99,6.68,0.68,18.39,0.68,18.39L395.9,173.35z"/>
				<path id="XMLID_95_" class="st33" d="M407.3,181.08c-1.24-4.06-6.25-8.57-11.39-7.73c-1.19,0.19-2.36,0.39-3.49,0.59
					c-0.62,2.51-7.04,4.45-13.61,2.9c-1.98,0.52-3.8,1.05-5.45,1.6c-4.72,1.57-9.09,5.52-9.82,20.93c0,0-2.38,35.91-2.56,42.86
					c11.66,4.92,23.91,5.05,30.71,3.73c14.15-2.76,15.98-8.56,15.98-8.56s0.76-25.84,0.59-37.01
					C408.11,190.89,408.14,183.87,407.3,181.08z"/>
				<g id="XMLID_87_">
					<polygon id="XMLID_94_" class="st2" points="334.87,156.54 306.92,171.13 320.81,209.1 346.89,194.49 					"/>
					<polygon id="XMLID_93_" class="st0" points="333.59,160.26 310.14,172.5 322.43,205.15 344.31,192.89 					"/>
					<path id="XMLID_92_" class="st3" d="M328.64,163.78c0,0-0.2-0.52-0.45-1.16c-0.25-0.64-2.2-0.26-4.36,0.85l-4.13,2.13
						c-2.16,1.11-3.7,2.54-3.45,3.18l0.45,1.16L328.64,163.78z"/>
					<g id="XMLID_88_">
						<path id="XMLID_91_" class="st5" d="M328.19,159.14c-0.15-0.4-1-0.34-1.9,0.15l-1.62,0.87c0,0-1-2.51-4.71-0.77
							c-3.72,1.74-2.87,4.64-2.87,4.64s-0.77,0.42-1.72,0.95c-0.95,0.52-1.62,1.28-1.51,1.68l0.21,0.74l14.4-7.51
							C328.47,159.88,328.34,159.54,328.19,159.14z"/>
						<path id="XMLID_90_" class="st8" d="M326.63,160.82c-1.34,0.66-1.87,0.98-1.48,1.97c0.44,1.13,0.85,1.94,0.85,1.94l-6.37,3.33
							c0,0-0.53-1.44-0.76-1.99c-0.23-0.55-0.7-0.82-1.71-0.29l-0.38-0.4l10.04-5.12L326.63,160.82z"/>
						<path id="XMLID_89_" class="st5" d="M328.91,163.85c0,0-0.2-0.52-0.45-1.16c-0.25-0.64-2.2-0.26-4.36,0.85l-4.13,2.13
							c-2.16,1.11-3.7,2.54-3.45,3.18l0.45,1.16L328.91,163.85z"/>
					</g>
				</g>
				<g id="XMLID_85_">
					<path id="XMLID_86_" class="st1" d="M362.83,210.25c0,0,6.92-8.39,8.72-14.55c0,0-1.3,9.12-8.92,17.59L362.83,210.25z"/>
				</g>
				<g id="XMLID_80_">
					<g id="XMLID_83_">
						<path id="XMLID_84_" class="st13" d="M372.58,178.76c-5.35,1.6-8.6,1.89-14.51,10.98c-5.91,9.09-19.28,26.12-20.56,28.29
							c-1.78,3.01-2.12,7.6-0.58,10.37c1.44,2.58,4.89,1.06,10.76-4.08c5.67-4.97,17.63-18.65,17.63-18.65
							S371.16,192.84,372.58,178.76z"/>
					</g>
					<g id="XMLID_81_">
						<path id="XMLID_82_" class="st2" d="M372.58,178.76c0,0-4.77,1-7.73,2.45c-0.91,0.45-4.14,1.28-6.59,4.55
							c-4.8,6.42-11.84,19.39-11.84,19.39s1.61,7.64,11.95,10.61c0,0,9.99-12.04,11.35-15.04
							C372.05,195.59,374.25,186.79,372.58,178.76z"/>
					</g>
				</g>
				<path id="XMLID_79_" class="st13" d="M338.72,229.67c-4.95-0.6-15.62-15.56-18.91-20.68c-3.6-5.61-6.95-8.3-10.01-10.56
					c-5.24-3.87-4.47-9.81-2.19-15.26c0.79-1.89,3.47-0.66,3.47-0.66l0.95,2.58l1.64,4.48c1.11,1.03,1.74,1.36,1.81,1.06
					c0.14-0.58-0.81-2.98-0.79-5.49c0.03-3.02,2.14-1.03,2.77,0.02c0.63,1.06,1.37,2.78,2.23,4.99c1.05,2.7,0.62,5.44,1.9,7.28
					c1.28,1.84,18.52,18.35,18.52,18.35L338.72,229.67z"/>
			</g>
			<g id="XMLID_76_">
				<path id="XMLID_77_" class="st23" d="M367.41,149.35c0,0-3.52,5.34-3.12,5.86c0.4,0.52,2.99,1,2.99,1L367.41,149.35z"/>
			</g>
			<g id="XMLID_72_">
				<path id="XMLID_73_" class="st8" d="M369.06,152.79c-2.31,0-4.19-1.88-4.19-4.19c0-2.31,1.88-4.19,4.19-4.19
					s4.19,1.88,4.19,4.19C373.25,150.9,371.37,152.79,369.06,152.79z M369.06,145.33c-1.8,0-3.26,1.46-3.26,3.26
					c0,1.8,1.46,3.26,3.26,3.26c1.8,0,3.26-1.46,3.26-3.26C372.32,146.79,370.86,145.33,369.06,145.33z"/>
			</g>
			<g id="XMLID_70_">
				<path id="XMLID_71_" class="st13" d="M377.19,134.58c-7.12,1.5-9.18,4.63-9.85,15.95c-0.7,11.82,0.51,15.54,2.06,17.13
					c1.05,1.07,6.87,1.27,9.81,0.46c3.68-1.01,11.99-3.96,15.88-9.91c4.58-7,5.78-16.48,0.88-20.37
					C389.07,132.37,380.08,133.97,377.19,134.58z"/>
			</g>
			<polygon id="XMLID_69_" class="st8" points="365.26,147.72 377.92,149.35 377.41,150.24 365.26,148.67 			"/>
		</g>
		<g id="XMLID_58_">
			<g id="XMLID_65_">
				<g id="XMLID_66_">
					<path id="XMLID_67_" class="st8" d="M366.55,138.28c0.07,0.07,0.14,0.14,0.21,0.21c1.37,1.3,3.12,2.12,4.56,3.36
						c1.58,1.36,2.66,3.16,3.23,5.15c0.47,1.64,0.66,3.58,2.44,4.34c0,0,1.13-4.37,4.81-3.82c3.71,0.55,4.21,5.28,1.87,8.15
						c-2.34,2.87-4.51,1.77-4.51,1.77s0.11,6.25,2.88,9.78c0,0,3.15,1.02,8.94-0.22c3.56-0.76,8.59-5.21,10.71-9.92
						c4.48-9.97,4.79-18.94-1.57-21.62c-0.69-4.59-4.3-6.65-8.43-7.6c-6.17-1.42-11.93,2.24-18.03,0.88
						c-1.28-0.29-2.52-0.74-3.82-0.9c-0.15-0.02-0.31-0.03-0.44,0.04c-0.31,0.16-0.29,0.6-0.2,0.94c0.32,1.22,0.95,2.36,1.79,3.29
						c-2.38,0.16-4.63-0.18-6.91-0.87C363.82,133.78,364.75,136.44,366.55,138.28z"/>
				</g>
			</g>
			<g id="XMLID_62_">
				<g id="XMLID_63_">
					<path id="XMLID_64_" class="st8" d="M400.23,136.99l4.26-2.51c-0.69-1.18-2.21-1.57-3.39-0.87S399.54,135.81,400.23,136.99z"/>
				</g>
			</g>
			<g id="XMLID_59_">
				<g id="XMLID_60_">
					<path id="XMLID_61_" class="st8" d="M376.92,153.83l0.13-4.95c-1.37-0.04-2.5,1.04-2.54,2.41
						C374.48,152.65,375.55,153.79,376.92,153.83z"/>
				</g>
			</g>
		</g>
	</g>
</g>
</svg>
